G04 Layer_Color=2752767*
%FSLAX25Y25*%
%MOIN*%
G70*
G01*
G75*
%ADD40C,0.00200*%
%ADD42C,0.00267*%
D40*
X331090Y253924D02*
Y255524D01*
X332690D01*
Y253924D01*
X331090D01*
Y242113D02*
Y243713D01*
X332690D01*
Y242113D01*
X331090D01*
X377953Y152940D02*
X377153Y154540D01*
X378753D01*
X377953Y152940D01*
Y439948D02*
X377153Y441548D01*
X378753D01*
X377953Y439948D01*
X423095Y428794D02*
X423494Y429194D01*
X423895D01*
X423494Y429595D01*
X423895Y429994D01*
X423494D01*
X423095Y430395D01*
X422694Y429994D01*
X422295D01*
X422694Y429595D01*
X422295Y429194D01*
X422694D01*
X423095Y428794D01*
Y418794D02*
X423494Y419195D01*
X423895D01*
X423494Y419594D01*
X423895Y419994D01*
X423494D01*
X423095Y420395D01*
X422694Y419994D01*
X422295D01*
X422694Y419594D01*
X422295Y419195D01*
X422694D01*
X423095Y418794D01*
Y408794D02*
X423494Y409195D01*
X423895D01*
X423494Y409594D01*
X423895Y409995D01*
X423494D01*
X423095Y410394D01*
X422694Y409995D01*
X422295D01*
X422694Y409594D01*
X422295Y409195D01*
X422694D01*
X423095Y408794D01*
Y398795D02*
X423494Y399195D01*
X423895D01*
X423494Y399594D01*
X423895Y399994D01*
X423494D01*
X423095Y400394D01*
X422694Y399994D01*
X422295D01*
X422694Y399594D01*
X422295Y399195D01*
X422694D01*
X423095Y398795D01*
Y388794D02*
X423494Y389194D01*
X423895D01*
X423494Y389595D01*
X423895Y389995D01*
X423494D01*
X423095Y390394D01*
X422694Y389995D01*
X422295D01*
X422694Y389595D01*
X422295Y389194D01*
X422694D01*
X423095Y388794D01*
Y378795D02*
X423494Y379194D01*
X423895D01*
X423494Y379594D01*
X423895Y379995D01*
X423494D01*
X423095Y380395D01*
X422694Y379995D01*
X422295D01*
X422694Y379594D01*
X422295Y379194D01*
X422694D01*
X423095Y378795D01*
Y368794D02*
X423494Y369195D01*
X423895D01*
X423494Y369595D01*
X423895Y369994D01*
X423494D01*
X423095Y370394D01*
X422694Y369994D01*
X422295D01*
X422694Y369595D01*
X422295Y369195D01*
X422694D01*
X423095Y368794D01*
Y358794D02*
X423494Y359194D01*
X423895D01*
X423494Y359594D01*
X423895Y359995D01*
X423494D01*
X423095Y360395D01*
X422694Y359995D01*
X422295D01*
X422694Y359594D01*
X422295Y359194D01*
X422694D01*
X423095Y358794D01*
X333095D02*
X333494Y359194D01*
X333894D01*
X333494Y359594D01*
X333894Y359995D01*
X333494D01*
X333095Y360395D01*
X332695Y359995D01*
X332295D01*
X332695Y359594D01*
X332295Y359194D01*
X332695D01*
X333095Y358794D01*
Y368794D02*
X333494Y369195D01*
X333894D01*
X333494Y369595D01*
X333894Y369994D01*
X333494D01*
X333095Y370394D01*
X332695Y369994D01*
X332295D01*
X332695Y369595D01*
X332295Y369195D01*
X332695D01*
X333095Y368794D01*
Y378795D02*
X333494Y379194D01*
X333894D01*
X333494Y379594D01*
X333894Y379995D01*
X333494D01*
X333095Y380395D01*
X332695Y379995D01*
X332295D01*
X332695Y379594D01*
X332295Y379194D01*
X332695D01*
X333095Y378795D01*
Y388794D02*
X333494Y389194D01*
X333894D01*
X333494Y389595D01*
X333894Y389995D01*
X333494D01*
X333095Y390394D01*
X332695Y389995D01*
X332295D01*
X332695Y389595D01*
X332295Y389194D01*
X332695D01*
X333095Y388794D01*
Y398795D02*
X333494Y399195D01*
X333894D01*
X333494Y399594D01*
X333894Y399994D01*
X333494D01*
X333095Y400394D01*
X332695Y399994D01*
X332295D01*
X332695Y399594D01*
X332295Y399195D01*
X332695D01*
X333095Y398795D01*
Y408794D02*
X333494Y409195D01*
X333894D01*
X333494Y409594D01*
X333894Y409995D01*
X333494D01*
X333095Y410394D01*
X332695Y409995D01*
X332295D01*
X332695Y409594D01*
X332295Y409195D01*
X332695D01*
X333095Y408794D01*
Y418794D02*
X333494Y419195D01*
X333894D01*
X333494Y419594D01*
X333894Y419994D01*
X333494D01*
X333095Y420395D01*
X332695Y419994D01*
X332295D01*
X332695Y419594D01*
X332295Y419195D01*
X332695D01*
X333095Y418794D01*
Y428794D02*
X333494Y429194D01*
X333894D01*
X333494Y429595D01*
X333894Y429994D01*
X333494D01*
X333095Y430395D01*
X332695Y429994D01*
X332295D01*
X332695Y429595D01*
X332295Y429194D01*
X332695D01*
X333095Y428794D01*
X412495Y217704D02*
X412895Y218504D01*
X412495Y219304D01*
X413295Y218904D01*
X414095Y219304D01*
X413695Y218504D01*
X414095Y217704D01*
X413295Y218104D01*
X412495Y217704D01*
Y201956D02*
X412895Y202756D01*
X412495Y203556D01*
X413295Y203156D01*
X414095Y203556D01*
X413695Y202756D01*
X414095Y201956D01*
X413295Y202356D01*
X412495Y201956D01*
X392907Y207730D02*
Y207330D01*
X393707D01*
Y207730D01*
X394107D01*
Y208530D01*
X393707D01*
Y208930D01*
X392907D01*
Y208530D01*
X392507D01*
Y207730D01*
X392907D01*
Y212730D02*
Y212330D01*
X393707D01*
Y212730D01*
X394107D01*
Y213530D01*
X393707D01*
Y213930D01*
X392907D01*
Y213530D01*
X392507D01*
Y212730D01*
X392907D01*
Y217730D02*
Y217330D01*
X393707D01*
Y217730D01*
X394107D01*
Y218530D01*
X393707D01*
Y218930D01*
X392907D01*
Y218530D01*
X392507D01*
Y217730D01*
X392907D01*
X414954Y176765D02*
Y176365D01*
X415754D01*
Y176765D01*
X416154D01*
Y177565D01*
X415754D01*
Y177965D01*
X414954D01*
Y177565D01*
X414554D01*
Y176765D01*
X414954D01*
Y180702D02*
Y180302D01*
X415754D01*
Y180702D01*
X416154D01*
Y181502D01*
X415754D01*
Y181902D01*
X414954D01*
Y181502D01*
X414554D01*
Y180702D01*
X414954D01*
Y184639D02*
Y184239D01*
X415754D01*
Y184639D01*
X416154D01*
Y185439D01*
X415754D01*
Y185839D01*
X414954D01*
Y185439D01*
X414554D01*
Y184639D01*
X414954D01*
X399600Y244226D02*
Y243826D01*
X400400D01*
Y244226D01*
X400800D01*
Y245026D01*
X400400D01*
Y245426D01*
X399600D01*
Y245026D01*
X399200D01*
Y244226D01*
X399600D01*
X395269Y239226D02*
Y238826D01*
X396069D01*
Y239226D01*
X396469D01*
Y240026D01*
X396069D01*
Y240426D01*
X395269D01*
Y240026D01*
X394869D01*
Y239226D01*
X395269D01*
X371253Y244226D02*
Y243826D01*
X372054D01*
Y244226D01*
X372453D01*
Y245026D01*
X372054D01*
Y245426D01*
X371253D01*
Y245026D01*
X370853D01*
Y244226D01*
X371253D01*
Y249226D02*
Y248826D01*
X372054D01*
Y249226D01*
X372453D01*
Y250026D01*
X372054D01*
Y250426D01*
X371253D01*
Y250026D01*
X370853D01*
Y249226D01*
X371253D01*
X405112Y210230D02*
Y209830D01*
X405912D01*
Y210230D01*
X406312D01*
Y211030D01*
X405912D01*
Y211430D01*
X405112D01*
Y211030D01*
X404712D01*
Y210230D01*
X405112D01*
X401175D02*
Y209830D01*
X401975D01*
Y210230D01*
X402375D01*
Y211030D01*
X401975D01*
Y211430D01*
X401175D01*
Y211030D01*
X400775D01*
Y210230D01*
X401175D01*
X355899Y229915D02*
Y229515D01*
X356699D01*
Y229915D01*
X357099D01*
Y230715D01*
X356699D01*
Y231115D01*
X355899D01*
Y230715D01*
X355499D01*
Y229915D01*
X355899D01*
X353537D02*
Y229515D01*
X354337D01*
Y229915D01*
X354737D01*
Y230715D01*
X354337D01*
Y231115D01*
X353537D01*
Y230715D01*
X353137D01*
Y229915D01*
X353537D01*
X351175D02*
Y229515D01*
X351975D01*
Y229915D01*
X352375D01*
Y230715D01*
X351975D01*
Y231115D01*
X351175D01*
Y230715D01*
X350775D01*
Y229915D01*
X351175D01*
X348813D02*
Y229515D01*
X349613D01*
Y229915D01*
X350013D01*
Y230715D01*
X349613D01*
Y231115D01*
X348813D01*
Y230715D01*
X348413D01*
Y229915D01*
X348813D01*
X353537Y227553D02*
Y227153D01*
X354337D01*
Y227553D01*
X354737D01*
Y228353D01*
X354337D01*
Y228753D01*
X353537D01*
Y228353D01*
X353137D01*
Y227553D01*
X353537D01*
X351175D02*
Y227153D01*
X351975D01*
Y227553D01*
X352375D01*
Y228353D01*
X351975D01*
Y228753D01*
X351175D01*
Y228353D01*
X350775D01*
Y227553D01*
X351175D01*
X348813D02*
Y227153D01*
X349613D01*
Y227553D01*
X350013D01*
Y228353D01*
X349613D01*
Y228753D01*
X348813D01*
Y228353D01*
X348413D01*
Y227553D01*
X348813D01*
X346450D02*
Y227153D01*
X347250D01*
Y227553D01*
X347650D01*
Y228353D01*
X347250D01*
Y228753D01*
X346450D01*
Y228353D01*
X346050D01*
Y227553D01*
X346450D01*
X379128Y210230D02*
Y209830D01*
X379928D01*
Y210230D01*
X380328D01*
Y211030D01*
X379928D01*
Y211430D01*
X379128D01*
Y211030D01*
X378728D01*
Y210230D01*
X379128D01*
X375978D02*
Y209830D01*
X376778D01*
Y210230D01*
X377178D01*
Y211030D01*
X376778D01*
Y211430D01*
X375978D01*
Y211030D01*
X375578D01*
Y210230D01*
X375978D01*
X377553Y207868D02*
Y207468D01*
X378353D01*
Y207868D01*
X378753D01*
Y208668D01*
X378353D01*
Y209068D01*
X377553D01*
Y208668D01*
X377153D01*
Y207868D01*
X377553D01*
Y205112D02*
Y204712D01*
X378353D01*
Y205112D01*
X378753D01*
Y205912D01*
X378353D01*
Y206312D01*
X377553D01*
Y205912D01*
X377153D01*
Y205112D01*
X377553D01*
Y212592D02*
Y212192D01*
X378353D01*
Y212592D01*
X378753D01*
Y213392D01*
X378353D01*
Y213792D01*
X377553D01*
Y213392D01*
X377153D01*
Y212592D01*
X377553D01*
Y215348D02*
Y214948D01*
X378353D01*
Y215348D01*
X378753D01*
Y216148D01*
X378353D01*
Y216548D01*
X377553D01*
Y216148D01*
X377153D01*
Y215348D01*
X377553D01*
X380702Y212592D02*
Y212192D01*
X381502D01*
Y212592D01*
X381902D01*
Y213392D01*
X381502D01*
Y213792D01*
X380702D01*
Y213392D01*
X380302D01*
Y212592D01*
X380702D01*
Y207868D02*
Y207468D01*
X381502D01*
Y207868D01*
X381902D01*
Y208668D01*
X381502D01*
Y209068D01*
X380702D01*
Y208668D01*
X380302D01*
Y207868D01*
X380702D01*
X374403D02*
Y207468D01*
X375203D01*
Y207868D01*
X375603D01*
Y208668D01*
X375203D01*
Y209068D01*
X374403D01*
Y208668D01*
X374003D01*
Y207868D01*
X374403D01*
Y212592D02*
Y212192D01*
X375203D01*
Y212592D01*
X375603D01*
Y213392D01*
X375203D01*
Y213792D01*
X374403D01*
Y213392D01*
X374003D01*
Y212592D01*
X374403D01*
X380702Y215348D02*
Y214948D01*
X381502D01*
Y215348D01*
X381902D01*
Y216148D01*
X381502D01*
Y216548D01*
X380702D01*
Y216148D01*
X380302D01*
Y215348D01*
X380702D01*
X374403D02*
Y214948D01*
X375203D01*
Y215348D01*
X375603D01*
Y216148D01*
X375203D01*
Y216548D01*
X374403D01*
Y216148D01*
X374003D01*
Y215348D01*
X374403D01*
X380702Y205112D02*
Y204712D01*
X381502D01*
Y205112D01*
X381902D01*
Y205912D01*
X381502D01*
Y206312D01*
X380702D01*
Y205912D01*
X380302D01*
Y205112D01*
X380702D01*
X374403D02*
Y204712D01*
X375203D01*
Y205112D01*
X375603D01*
Y205912D01*
X375203D01*
Y206312D01*
X374403D01*
Y205912D01*
X374003D01*
Y205112D01*
X374403D01*
X327553Y225584D02*
Y225184D01*
X328353D01*
Y225584D01*
X328753D01*
Y226384D01*
X328353D01*
Y226784D01*
X327553D01*
Y226384D01*
X327153D01*
Y225584D01*
X327553D01*
X329915Y227946D02*
Y227547D01*
X330715D01*
Y227946D01*
X331115D01*
Y228747D01*
X330715D01*
Y229147D01*
X329915D01*
Y228747D01*
X329515D01*
Y227946D01*
X329915D01*
X332277Y225584D02*
Y225184D01*
X333077D01*
Y225584D01*
X333477D01*
Y226384D01*
X333077D01*
Y226784D01*
X332277D01*
Y226384D01*
X331877D01*
Y225584D01*
X332277D01*
X327553Y227946D02*
Y227547D01*
X328353D01*
Y227946D01*
X328753D01*
Y228747D01*
X328353D01*
Y229147D01*
X327553D01*
Y228747D01*
X327153D01*
Y227946D01*
X327553D01*
X332277D02*
Y227547D01*
X333077D01*
Y227946D01*
X333477D01*
Y228747D01*
X333077D01*
Y229147D01*
X332277D01*
Y228747D01*
X331877D01*
Y227946D01*
X332277D01*
X426372Y258655D02*
Y258255D01*
X427172D01*
Y258655D01*
X427572D01*
Y259455D01*
X427172D01*
Y259855D01*
X426372D01*
Y259455D01*
X425972D01*
Y258655D01*
X426372D01*
Y263380D02*
Y262980D01*
X427172D01*
Y263380D01*
X427572D01*
Y264179D01*
X427172D01*
Y264580D01*
X426372D01*
Y264179D01*
X425972D01*
Y263380D01*
X426372D01*
Y268104D02*
Y267704D01*
X427172D01*
Y268104D01*
X427572D01*
Y268904D01*
X427172D01*
Y269304D01*
X426372D01*
Y268904D01*
X425972D01*
Y268104D01*
X426372D01*
X420860Y202750D02*
Y202350D01*
X421660D01*
Y202750D01*
X422060D01*
Y203550D01*
X421660D01*
Y203950D01*
X420860D01*
Y203550D01*
X420460D01*
Y202750D01*
X420860D01*
Y205112D02*
Y204712D01*
X421660D01*
Y205112D01*
X422060D01*
Y205912D01*
X421660D01*
Y206312D01*
X420860D01*
Y205912D01*
X420460D01*
Y205112D01*
X420860D01*
Y217710D02*
Y217310D01*
X421660D01*
Y217710D01*
X422060D01*
Y218510D01*
X421660D01*
Y218910D01*
X420860D01*
Y218510D01*
X420460D01*
Y217710D01*
X420860D01*
Y215348D02*
Y214948D01*
X421660D01*
Y215348D01*
X422060D01*
Y216148D01*
X421660D01*
Y216548D01*
X420860D01*
Y216148D01*
X420460D01*
Y215348D01*
X420860D01*
X364954Y199206D02*
Y198806D01*
X365754D01*
Y199206D01*
X366154D01*
Y200006D01*
X365754D01*
Y200406D01*
X364954D01*
Y200006D01*
X364554D01*
Y199206D01*
X364954D01*
Y193694D02*
Y193295D01*
X365754D01*
Y193694D01*
X366154D01*
Y194494D01*
X365754D01*
Y194895D01*
X364954D01*
Y194494D01*
X364554D01*
Y193694D01*
X364954D01*
X367710D02*
Y193295D01*
X368510D01*
Y193694D01*
X368910D01*
Y194494D01*
X368510D01*
Y194895D01*
X367710D01*
Y194494D01*
X367310D01*
Y193694D01*
X367710D01*
X364954Y196450D02*
Y196050D01*
X365754D01*
Y196450D01*
X366154D01*
Y197250D01*
X365754D01*
Y197650D01*
X364954D01*
Y197250D01*
X364554D01*
Y196450D01*
X364954D01*
X362198D02*
Y196050D01*
X362998D01*
Y196450D01*
X363398D01*
Y197250D01*
X362998D01*
Y197650D01*
X362198D01*
Y197250D01*
X361798D01*
Y196450D01*
X362198D01*
Y193694D02*
Y193295D01*
X362998D01*
Y193694D01*
X363398D01*
Y194494D01*
X362998D01*
Y194895D01*
X362198D01*
Y194494D01*
X361798D01*
Y193694D01*
X362198D01*
X367710Y196450D02*
Y196050D01*
X368510D01*
Y196450D01*
X368910D01*
Y197250D01*
X368510D01*
Y197650D01*
X367710D01*
Y197250D01*
X367310D01*
Y196450D01*
X367710D01*
Y199206D02*
Y198806D01*
X368510D01*
Y199206D01*
X368910D01*
Y200006D01*
X368510D01*
Y200406D01*
X367710D01*
Y200006D01*
X367310D01*
Y199206D01*
X367710D01*
X335821Y239757D02*
Y239357D01*
X336620D01*
Y239757D01*
X337020D01*
Y240558D01*
X336620D01*
Y240957D01*
X335821D01*
Y240558D01*
X335420D01*
Y239757D01*
X335821D01*
Y245269D02*
Y244869D01*
X336620D01*
Y245269D01*
X337020D01*
Y246069D01*
X336620D01*
Y246469D01*
X335821D01*
Y246069D01*
X335420D01*
Y245269D01*
X335821D01*
Y242513D02*
Y242113D01*
X336620D01*
Y242513D01*
X337020D01*
Y243313D01*
X336620D01*
Y243713D01*
X335821D01*
Y243313D01*
X335420D01*
Y242513D01*
X335821D01*
X341332Y248025D02*
Y247625D01*
X342132D01*
Y248025D01*
X342532D01*
Y248825D01*
X342132D01*
Y249225D01*
X341332D01*
Y248825D01*
X340932D01*
Y248025D01*
X341332D01*
X344088D02*
Y247625D01*
X344888D01*
Y248025D01*
X345288D01*
Y248825D01*
X344888D01*
Y249225D01*
X344088D01*
Y248825D01*
X343688D01*
Y248025D01*
X344088D01*
Y245269D02*
Y244869D01*
X344888D01*
Y245269D01*
X345288D01*
Y246069D01*
X344888D01*
Y246469D01*
X344088D01*
Y246069D01*
X343688D01*
Y245269D01*
X344088D01*
Y242513D02*
Y242113D01*
X344888D01*
Y242513D01*
X345288D01*
Y243313D01*
X344888D01*
Y243713D01*
X344088D01*
Y243313D01*
X343688D01*
Y242513D01*
X344088D01*
Y239757D02*
Y239357D01*
X344888D01*
Y239757D01*
X345288D01*
Y240558D01*
X344888D01*
Y240957D01*
X344088D01*
Y240558D01*
X343688D01*
Y239757D01*
X344088D01*
X341332Y237002D02*
Y236602D01*
X342132D01*
Y237002D01*
X342532D01*
Y237802D01*
X342132D01*
Y238202D01*
X341332D01*
Y237802D01*
X340932D01*
Y237002D01*
X341332D01*
X344088D02*
Y236602D01*
X344888D01*
Y237002D01*
X345288D01*
Y237802D01*
X344888D01*
Y238202D01*
X344088D01*
Y237802D01*
X343688D01*
Y237002D01*
X344088D01*
X341332Y242513D02*
Y242113D01*
X342132D01*
Y242513D01*
X342532D01*
Y243313D01*
X342132D01*
Y243713D01*
X341332D01*
Y243313D01*
X340932D01*
Y242513D01*
X341332D01*
X338576D02*
Y242113D01*
X339376D01*
Y242513D01*
X339776D01*
Y243313D01*
X339376D01*
Y243713D01*
X338576D01*
Y243313D01*
X338176D01*
Y242513D01*
X338576D01*
X373616Y196450D02*
Y196050D01*
X374416D01*
Y196450D01*
X374816D01*
Y197250D01*
X374416D01*
Y197650D01*
X373616D01*
Y197250D01*
X373216D01*
Y196450D01*
X373616D01*
Y193694D02*
Y193295D01*
X374416D01*
Y193694D01*
X374816D01*
Y194494D01*
X374416D01*
Y194895D01*
X373616D01*
Y194494D01*
X373216D01*
Y193694D01*
X373616D01*
X376372D02*
Y193295D01*
X377172D01*
Y193694D01*
X377572D01*
Y194494D01*
X377172D01*
Y194895D01*
X376372D01*
Y194494D01*
X375972D01*
Y193694D01*
X376372D01*
Y196450D02*
Y196050D01*
X377172D01*
Y196450D01*
X377572D01*
Y197250D01*
X377172D01*
Y197650D01*
X376372D01*
Y197250D01*
X375972D01*
Y196450D01*
X376372D01*
X373616Y199206D02*
Y198806D01*
X374416D01*
Y199206D01*
X374816D01*
Y200006D01*
X374416D01*
Y200406D01*
X373616D01*
Y200006D01*
X373216D01*
Y199206D01*
X373616D01*
X379128Y196450D02*
Y196050D01*
X379928D01*
Y196450D01*
X380328D01*
Y197250D01*
X379928D01*
Y197650D01*
X379128D01*
Y197250D01*
X378728D01*
Y196450D01*
X379128D01*
Y193694D02*
Y193295D01*
X379928D01*
Y193694D01*
X380328D01*
Y194494D01*
X379928D01*
Y194895D01*
X379128D01*
Y194494D01*
X378728D01*
Y193694D01*
X379128D01*
X376372Y199206D02*
Y198806D01*
X377172D01*
Y199206D01*
X377572D01*
Y200006D01*
X377172D01*
Y200406D01*
X376372D01*
Y200006D01*
X375972D01*
Y199206D01*
X376372D01*
X375584Y224009D02*
Y223609D01*
X376384D01*
Y224009D01*
X376784D01*
Y224810D01*
X376384D01*
Y225209D01*
X375584D01*
Y224810D01*
X375184D01*
Y224009D01*
X375584D01*
Y226372D02*
Y225972D01*
X376384D01*
Y226372D01*
X376784D01*
Y227172D01*
X376384D01*
Y227572D01*
X375584D01*
Y227172D01*
X375184D01*
Y226372D01*
X375584D01*
X374797Y289757D02*
Y289357D01*
X375597D01*
Y289757D01*
X375997D01*
Y290558D01*
X375597D01*
Y290957D01*
X374797D01*
Y290558D01*
X374397D01*
Y289757D01*
X374797D01*
X377553Y287002D02*
Y286602D01*
X378353D01*
Y287002D01*
X378753D01*
Y287802D01*
X378353D01*
Y288202D01*
X377553D01*
Y287802D01*
X377153D01*
Y287002D01*
X377553D01*
X380309D02*
Y286602D01*
X381109D01*
Y287002D01*
X381509D01*
Y287802D01*
X381109D01*
Y288202D01*
X380309D01*
Y287802D01*
X379909D01*
Y287002D01*
X380309D01*
X377553Y289757D02*
Y289357D01*
X378353D01*
Y289757D01*
X378753D01*
Y290558D01*
X378353D01*
Y290957D01*
X377553D01*
Y290558D01*
X377153D01*
Y289757D01*
X377553D01*
X374797Y284246D02*
Y283846D01*
X375597D01*
Y284246D01*
X375997D01*
Y285046D01*
X375597D01*
Y285446D01*
X374797D01*
Y285046D01*
X374397D01*
Y284246D01*
X374797D01*
Y287002D02*
Y286602D01*
X375597D01*
Y287002D01*
X375997D01*
Y287802D01*
X375597D01*
Y288202D01*
X374797D01*
Y287802D01*
X374397D01*
Y287002D01*
X374797D01*
X380309Y289757D02*
Y289357D01*
X381109D01*
Y289757D01*
X381509D01*
Y290558D01*
X381109D01*
Y290957D01*
X380309D01*
Y290558D01*
X379909D01*
Y289757D01*
X380309D01*
X377553Y284246D02*
Y283846D01*
X378353D01*
Y284246D01*
X378753D01*
Y285046D01*
X378353D01*
Y285446D01*
X377553D01*
Y285046D01*
X377153D01*
Y284246D01*
X377553D01*
X403931Y401569D02*
Y401168D01*
X404731D01*
Y401569D01*
X405131D01*
Y402368D01*
X404731D01*
Y402769D01*
X403931D01*
Y402368D01*
X403531D01*
Y401569D01*
X403931D01*
X421253Y349994D02*
Y349594D01*
X422053D01*
Y349994D01*
X422453D01*
Y350794D01*
X422053D01*
Y351194D01*
X421253D01*
Y350794D01*
X420854D01*
Y349994D01*
X421253D01*
X423616D02*
Y349594D01*
X424416D01*
Y349994D01*
X424816D01*
Y350794D01*
X424416D01*
Y351194D01*
X423616D01*
Y350794D01*
X423216D01*
Y349994D01*
X423616D01*
Y347632D02*
Y347232D01*
X424416D01*
Y347632D01*
X424816D01*
Y348431D01*
X424416D01*
Y348832D01*
X423616D01*
Y348431D01*
X423216D01*
Y347632D01*
X423616D01*
X421253D02*
Y347232D01*
X422053D01*
Y347632D01*
X422453D01*
Y348431D01*
X422053D01*
Y348832D01*
X421253D01*
Y348431D01*
X420854D01*
Y347632D01*
X421253D01*
Y345269D02*
Y344869D01*
X422053D01*
Y345269D01*
X422453D01*
Y346069D01*
X422053D01*
Y346469D01*
X421253D01*
Y346069D01*
X420854D01*
Y345269D01*
X421253D01*
X423616D02*
Y344869D01*
X424416D01*
Y345269D01*
X424816D01*
Y346069D01*
X424416D01*
Y346469D01*
X423616D01*
Y346069D01*
X423216D01*
Y345269D01*
X423616D01*
X421253Y342907D02*
Y342507D01*
X422053D01*
Y342907D01*
X422453D01*
Y343707D01*
X422053D01*
Y344107D01*
X421253D01*
Y343707D01*
X420854D01*
Y342907D01*
X421253D01*
X423616D02*
Y342507D01*
X424416D01*
Y342907D01*
X424816D01*
Y343707D01*
X424416D01*
Y344107D01*
X423616D01*
Y343707D01*
X423216D01*
Y342907D01*
X423616D01*
X421253Y340545D02*
Y340145D01*
X422053D01*
Y340545D01*
X422453D01*
Y341345D01*
X422053D01*
Y341745D01*
X421253D01*
Y341345D01*
X420854D01*
Y340545D01*
X421253D01*
X423616D02*
Y340145D01*
X424416D01*
Y340545D01*
X424816D01*
Y341345D01*
X424416D01*
Y341745D01*
X423616D01*
Y341345D01*
X423216D01*
Y340545D01*
X423616D01*
X421253Y338183D02*
Y337783D01*
X422053D01*
Y338183D01*
X422453D01*
Y338983D01*
X422053D01*
Y339383D01*
X421253D01*
Y338983D01*
X420854D01*
Y338183D01*
X421253D01*
X423616D02*
Y337783D01*
X424416D01*
Y338183D01*
X424816D01*
Y338983D01*
X424416D01*
Y339383D01*
X423616D01*
Y338983D01*
X423216D01*
Y338183D01*
X423616D01*
X426372Y265742D02*
Y265342D01*
X427172D01*
Y265742D01*
X427572D01*
Y266542D01*
X427172D01*
Y266942D01*
X426372D01*
Y266542D01*
X425972D01*
Y265742D01*
X426372D01*
Y261017D02*
Y260617D01*
X427172D01*
Y261017D01*
X427572D01*
Y261817D01*
X427172D01*
Y262217D01*
X426372D01*
Y261817D01*
X425972D01*
Y261017D01*
X426372D01*
Y256293D02*
Y255893D01*
X427172D01*
Y256293D01*
X427572D01*
Y257093D01*
X427172D01*
Y257493D01*
X426372D01*
Y257093D01*
X425972D01*
Y256293D01*
X426372D01*
Y270466D02*
Y270066D01*
X427172D01*
Y270466D01*
X427572D01*
Y271266D01*
X427172D01*
Y271666D01*
X426372D01*
Y271266D01*
X425972D01*
Y270466D01*
X426372D01*
X329915Y225584D02*
Y225184D01*
X330715D01*
Y225584D01*
X331115D01*
Y226384D01*
X330715D01*
Y226784D01*
X329915D01*
Y226384D01*
X329515D01*
Y225584D01*
X329915D01*
X355899Y227553D02*
Y227153D01*
X356699D01*
Y227553D01*
X357099D01*
Y228353D01*
X356699D01*
Y228753D01*
X355899D01*
Y228353D01*
X355499D01*
Y227553D01*
X355899D01*
X346450Y229915D02*
Y229515D01*
X347250D01*
Y229915D01*
X347650D01*
Y230715D01*
X347250D01*
Y231115D01*
X346450D01*
Y230715D01*
X346050D01*
Y229915D01*
X346450D01*
X403931Y389757D02*
Y389357D01*
X404731D01*
Y389757D01*
X405131D01*
Y390558D01*
X404731D01*
Y390957D01*
X403931D01*
Y390558D01*
X403531D01*
Y389757D01*
X403931D01*
X401569D02*
Y389357D01*
X402368D01*
Y389757D01*
X402769D01*
Y390558D01*
X402368D01*
Y390957D01*
X401569D01*
Y390558D01*
X401168D01*
Y389757D01*
X401569D01*
X403931Y392120D02*
Y391720D01*
X404731D01*
Y392120D01*
X405131D01*
Y392920D01*
X404731D01*
Y393320D01*
X403931D01*
Y392920D01*
X403531D01*
Y392120D01*
X403931D01*
X401569D02*
Y391720D01*
X402368D01*
Y392120D01*
X402769D01*
Y392920D01*
X402368D01*
Y393320D01*
X401569D01*
Y392920D01*
X401168D01*
Y392120D01*
X401569D01*
X403931Y394482D02*
Y394082D01*
X404731D01*
Y394482D01*
X405131D01*
Y395282D01*
X404731D01*
Y395682D01*
X403931D01*
Y395282D01*
X403531D01*
Y394482D01*
X403931D01*
X401569D02*
Y394082D01*
X402368D01*
Y394482D01*
X402769D01*
Y395282D01*
X402368D01*
Y395682D01*
X401569D01*
Y395282D01*
X401168D01*
Y394482D01*
X401569D01*
Y396844D02*
Y396444D01*
X402368D01*
Y396844D01*
X402769D01*
Y397644D01*
X402368D01*
Y398044D01*
X401569D01*
Y397644D01*
X401168D01*
Y396844D01*
X401569D01*
X403931D02*
Y396444D01*
X404731D01*
Y396844D01*
X405131D01*
Y397644D01*
X404731D01*
Y398044D01*
X403931D01*
Y397644D01*
X403531D01*
Y396844D01*
X403931D01*
X401569Y401569D02*
Y401168D01*
X402368D01*
Y401569D01*
X402769D01*
Y402368D01*
X402368D01*
Y402769D01*
X401569D01*
Y402368D01*
X401168D01*
Y401569D01*
X401569D01*
Y399206D02*
Y398806D01*
X402368D01*
Y399206D01*
X402769D01*
Y400006D01*
X402368D01*
Y400406D01*
X401569D01*
Y400006D01*
X401168D01*
Y399206D01*
X401569D01*
X403931D02*
Y398806D01*
X404731D01*
Y399206D01*
X405131D01*
Y400006D01*
X404731D01*
Y400406D01*
X403931D01*
Y400006D01*
X403531D01*
Y399206D01*
X403931D01*
X380309Y284246D02*
Y283846D01*
X381109D01*
Y284246D01*
X381509D01*
Y285046D01*
X381109D01*
Y285446D01*
X380309D01*
Y285046D01*
X379909D01*
Y284246D01*
X380309D01*
D42*
X333477Y281890D02*
G03*
X333477Y281890I-800J0D01*
G01*
X361477D02*
G03*
X361477Y281890I-800J0D01*
G01*
X396076D02*
G03*
X396076Y281890I-800J0D01*
G01*
X424076D02*
G03*
X424076Y281890I-800J0D01*
G01*
M02*
