G04 Layer_Physical_Order=2*
G04 Layer_Color=16711680*
%FSLAX25Y25*%
%MOIN*%
G70*
G01*
G75*
%ADD24C,0.03543*%
%ADD25C,0.01000*%
%ADD26C,0.01575*%
%ADD28C,0.03543*%
%ADD29C,0.07874*%
%ADD30O,0.27087X0.13543*%
%ADD31O,0.11200X0.05600*%
%ADD32C,0.01575*%
%ADD33C,0.02362*%
%ADD34C,0.01968*%
%ADD35C,0.03347*%
G36*
X430191Y226755D02*
X426521Y223085D01*
X426324Y222790D01*
X426254Y222441D01*
Y198819D01*
X426324Y198470D01*
X426521Y198175D01*
X430191Y194504D01*
Y144612D01*
X325714D01*
Y449876D01*
X430191D01*
Y226755D01*
D02*
G37*
%LPC*%
G36*
X331973Y256949D02*
X331890Y256932D01*
X331807Y256949D01*
X331115Y256811D01*
X331045Y256764D01*
X330962Y256748D01*
X330376Y256356D01*
X330329Y256286D01*
X330258Y256239D01*
X329867Y255652D01*
X329850Y255569D01*
X329803Y255499D01*
X329665Y254807D01*
X329674Y254765D01*
X329657Y254724D01*
X329674Y254684D01*
X329665Y254641D01*
X329803Y253950D01*
X329850Y253880D01*
X329867Y253796D01*
X330258Y253210D01*
X330329Y253163D01*
X330376Y253093D01*
X330962Y252701D01*
X331045Y252685D01*
X331115Y252638D01*
X331807Y252500D01*
X331890Y252517D01*
X331973Y252500D01*
X332664Y252638D01*
X332735Y252685D01*
X332818Y252701D01*
X333404Y253093D01*
X333451Y253163D01*
X333521Y253210D01*
X333913Y253796D01*
X333929Y253879D01*
X333977Y253950D01*
X334114Y254641D01*
X334106Y254684D01*
X334122Y254724D01*
X334106Y254765D01*
X334114Y254807D01*
X333977Y255499D01*
X333929Y255569D01*
X333913Y255652D01*
X333521Y256239D01*
X333451Y256286D01*
X333404Y256356D01*
X332818Y256748D01*
X332735Y256764D01*
X332664Y256811D01*
X331973Y256949D01*
D02*
G37*
G36*
X371654Y251232D02*
X371039Y251109D01*
X370518Y250761D01*
X370170Y250240D01*
X370048Y249626D01*
X370170Y249011D01*
X370518Y248491D01*
X371039Y248143D01*
X371654Y248020D01*
X372268Y248143D01*
X372385Y248221D01*
X376957D01*
X378148Y247031D01*
X377733Y246031D01*
X372385D01*
X372268Y246109D01*
X371654Y246232D01*
X371039Y246109D01*
X370518Y245761D01*
X370170Y245240D01*
X370048Y244626D01*
X370170Y244011D01*
X370518Y243491D01*
X371039Y243143D01*
X371654Y243020D01*
X372268Y243143D01*
X372385Y243221D01*
X378414D01*
X400170Y221465D01*
Y213970D01*
X399170Y213556D01*
X394860Y217865D01*
X394913Y218130D01*
X394791Y218744D01*
X394443Y219265D01*
X393921Y219613D01*
X393307Y219736D01*
X392693Y219613D01*
X392172Y219265D01*
X391824Y218744D01*
X391701Y218130D01*
X391824Y217515D01*
X392172Y216995D01*
X392693Y216647D01*
X393307Y216524D01*
X393571Y216577D01*
X397908Y212241D01*
Y210807D01*
X396908Y210708D01*
X396905Y210723D01*
X396707Y211018D01*
X394860Y212865D01*
X394913Y213130D01*
X394791Y213744D01*
X394443Y214265D01*
X393921Y214613D01*
X393307Y214736D01*
X392693Y214613D01*
X392172Y214265D01*
X391824Y213744D01*
X391701Y213130D01*
X391824Y212515D01*
X392172Y211995D01*
X392693Y211647D01*
X393307Y211524D01*
X393571Y211577D01*
X394477Y210672D01*
X394433Y210454D01*
X393921Y209613D01*
X393307Y209736D01*
X392693Y209613D01*
X392172Y209265D01*
X391824Y208744D01*
X391701Y208130D01*
X391824Y207516D01*
X392172Y206995D01*
X392396Y206845D01*
Y199213D01*
X392465Y198864D01*
X392663Y198568D01*
X413801Y177430D01*
X413749Y177165D01*
X413871Y176551D01*
X414219Y176030D01*
X414740Y175682D01*
X415354Y175560D01*
X415969Y175682D01*
X416490Y176030D01*
X416838Y176551D01*
X416960Y177165D01*
X416838Y177780D01*
X416490Y178301D01*
X416026Y178611D01*
X415969Y179054D01*
Y179214D01*
X416026Y179657D01*
X416490Y179967D01*
X416838Y180488D01*
X416960Y181102D01*
X416838Y181717D01*
X416490Y182238D01*
X416026Y182548D01*
X415969Y182991D01*
Y183151D01*
X416026Y183594D01*
X416490Y183904D01*
X416838Y184425D01*
X416960Y185039D01*
X416838Y185654D01*
X416490Y186175D01*
X415969Y186523D01*
X415354Y186645D01*
X415090Y186592D01*
X399730Y201952D01*
Y208857D01*
X399803Y208923D01*
X400730Y209300D01*
X400960Y209146D01*
X401575Y209024D01*
X402189Y209146D01*
X402710Y209494D01*
X403020Y209958D01*
X403464Y210016D01*
X403623D01*
X404067Y209958D01*
X404376Y209494D01*
X404897Y209146D01*
X405512Y209024D01*
X406126Y209146D01*
X406647Y209494D01*
X406995Y210016D01*
X407118Y210630D01*
X406995Y211244D01*
X406917Y211362D01*
Y221654D01*
X406810Y222191D01*
X406505Y222647D01*
X378533Y250619D01*
X378077Y250924D01*
X377539Y251031D01*
X372385D01*
X372268Y251109D01*
X371654Y251232D01*
D02*
G37*
G36*
X335894Y372816D02*
X330294D01*
X329461Y372706D01*
X328684Y372384D01*
X328017Y371872D01*
X327505Y371205D01*
X327183Y370428D01*
X327073Y369595D01*
X327183Y368761D01*
X327505Y367984D01*
X328017Y367317D01*
X328684Y366805D01*
X329461Y366483D01*
X330294Y366373D01*
X335894D01*
X336728Y366483D01*
X337505Y366805D01*
X338172Y367317D01*
X338684Y367984D01*
X339006Y368761D01*
X339116Y369595D01*
X339006Y370428D01*
X338684Y371205D01*
X338172Y371872D01*
X337505Y372384D01*
X336728Y372706D01*
X335894Y372816D01*
D02*
G37*
G36*
Y362816D02*
X330294D01*
X329461Y362706D01*
X328684Y362384D01*
X328017Y361872D01*
X327505Y361205D01*
X327183Y360428D01*
X327073Y359594D01*
X327183Y358761D01*
X327505Y357984D01*
X328017Y357317D01*
X328684Y356805D01*
X329461Y356483D01*
X330294Y356373D01*
X335894D01*
X336728Y356483D01*
X337505Y356805D01*
X338172Y357317D01*
X338684Y357984D01*
X339006Y358761D01*
X339116Y359594D01*
X339006Y360428D01*
X338684Y361205D01*
X338172Y361872D01*
X337505Y362384D01*
X336728Y362706D01*
X335894Y362816D01*
D02*
G37*
G36*
X345191Y250426D02*
X339848D01*
X339770Y250394D01*
X339685D01*
X339541Y250334D01*
X339481Y250274D01*
X339403Y250241D01*
X336831Y247670D01*
X335518D01*
X335439Y247638D01*
X335355D01*
X335210Y247578D01*
X335150Y247518D01*
X335072Y247485D01*
X334404Y246818D01*
X334372Y246740D01*
X334312Y246680D01*
X334252Y246535D01*
Y246450D01*
X334220Y246372D01*
Y245111D01*
X333889Y244882D01*
X333220Y244668D01*
X332818Y244937D01*
X332735Y244953D01*
X332664Y245000D01*
X331973Y245138D01*
X331890Y245121D01*
X331807Y245138D01*
X331115Y245000D01*
X331045Y244953D01*
X330962Y244937D01*
X330376Y244545D01*
X330329Y244475D01*
X330258Y244427D01*
X329867Y243841D01*
X329850Y243758D01*
X329803Y243688D01*
X329665Y242997D01*
X329674Y242954D01*
X329657Y242913D01*
X329674Y242873D01*
X329665Y242830D01*
X329803Y242139D01*
X329850Y242069D01*
X329867Y241985D01*
X330258Y241399D01*
X330329Y241352D01*
X330376Y241282D01*
X330962Y240890D01*
X331045Y240874D01*
X331115Y240827D01*
X331807Y240689D01*
X331890Y240706D01*
X331973Y240689D01*
X332664Y240827D01*
X332735Y240874D01*
X332818Y240890D01*
X333220Y241159D01*
X333889Y240945D01*
X334220Y240716D01*
Y239455D01*
X334252Y239376D01*
Y239292D01*
X334312Y239147D01*
X334372Y239087D01*
X334404Y239009D01*
X335072Y238341D01*
X335150Y238309D01*
X335210Y238249D01*
X335355Y238189D01*
X335439D01*
X335518Y238157D01*
X336831D01*
X339462Y235525D01*
X339525Y235500D01*
Y220472D01*
X339693Y219628D01*
X340171Y218911D01*
X340171Y218911D01*
X360226Y198857D01*
X360782Y197999D01*
X360750Y197921D01*
X360690Y197861D01*
X360630Y197716D01*
Y197631D01*
X360597Y197553D01*
Y193392D01*
X360630Y193314D01*
Y193229D01*
X360690Y193084D01*
X360750Y193024D01*
X360782Y192946D01*
X361450Y192278D01*
X361528Y192246D01*
X361588Y192186D01*
X361733Y192126D01*
X361818D01*
X361896Y192094D01*
X380230D01*
X380309Y192126D01*
X380393D01*
X380538Y192186D01*
X380598Y192246D01*
X380676Y192278D01*
X381344Y192946D01*
X381376Y193024D01*
X381436Y193084D01*
X381496Y193229D01*
Y193314D01*
X381528Y193392D01*
Y197553D01*
X381496Y197631D01*
Y197716D01*
X381436Y197861D01*
X381376Y197921D01*
X381344Y197999D01*
X377920Y201423D01*
X377842Y201455D01*
X377782Y201515D01*
X377637Y201575D01*
X377553D01*
X377474Y201607D01*
X364652D01*
X364573Y201575D01*
X364489D01*
X364344Y201515D01*
X364284Y201455D01*
X364206Y201423D01*
X364055Y201272D01*
X343940Y221387D01*
Y235401D01*
X345191D01*
X345269Y235433D01*
X345354D01*
X345499Y235493D01*
X345559Y235553D01*
X345637Y235585D01*
X346304Y236253D01*
X346337Y236331D01*
X346397Y236391D01*
X346457Y236536D01*
Y236621D01*
X346489Y236699D01*
Y249128D01*
X346457Y249206D01*
Y249291D01*
X346397Y249436D01*
X346337Y249496D01*
X346304Y249574D01*
X345637Y250241D01*
X345559Y250274D01*
X345499Y250334D01*
X345354Y250394D01*
X345269D01*
X345191Y250426D01*
D02*
G37*
G36*
X413378Y204298D02*
X413295Y204281D01*
X413212Y204298D01*
X412782Y204212D01*
X412711Y204165D01*
X412628Y204149D01*
X412264Y203905D01*
X412217Y203835D01*
X412146Y203787D01*
X411903Y203423D01*
X411886Y203340D01*
X411839Y203269D01*
X411753Y202839D01*
X411762Y202796D01*
X411745Y202756D01*
X411762Y202716D01*
X411753Y202673D01*
X411839Y202243D01*
X411886Y202172D01*
X411903Y202089D01*
X412146Y201724D01*
X412217Y201677D01*
X412264Y201607D01*
X412628Y201363D01*
X412711Y201347D01*
X412782Y201300D01*
X413212Y201214D01*
X413295Y201231D01*
X413378Y201214D01*
X413808Y201300D01*
X413879Y201347D01*
X413962Y201363D01*
X414327Y201607D01*
X414374Y201677D01*
X414444Y201724D01*
X414688Y202089D01*
X414705Y202172D01*
X414752Y202243D01*
X414837Y202673D01*
X414829Y202716D01*
X414845Y202756D01*
X414829Y202796D01*
X414837Y202839D01*
X414752Y203269D01*
X414705Y203340D01*
X414688Y203423D01*
X414444Y203787D01*
X414374Y203835D01*
X414327Y203905D01*
X413962Y204149D01*
X413879Y204165D01*
X413808Y204212D01*
X413378Y204298D01*
D02*
G37*
G36*
X384724Y160940D02*
X371181D01*
X369777Y160802D01*
X368426Y160392D01*
X367181Y159727D01*
X366090Y158831D01*
X365195Y157740D01*
X364529Y156495D01*
X364119Y155145D01*
X363981Y153740D01*
X364119Y152336D01*
X364529Y150985D01*
X365195Y149740D01*
X366090Y148649D01*
X367181Y147754D01*
X368426Y147088D01*
X369777Y146678D01*
X371181Y146540D01*
X384724D01*
X386129Y146678D01*
X387480Y147088D01*
X388724Y147754D01*
X389816Y148649D01*
X390711Y149740D01*
X391376Y150985D01*
X391786Y152336D01*
X391924Y153740D01*
X391786Y155145D01*
X391376Y156495D01*
X390711Y157740D01*
X389816Y158831D01*
X388724Y159727D01*
X387480Y160392D01*
X386129Y160802D01*
X384724Y160940D01*
D02*
G37*
G36*
X332677Y286258D02*
X331547Y286109D01*
X330493Y285673D01*
X329589Y284979D01*
X328894Y284074D01*
X328458Y283020D01*
X328309Y281890D01*
X328458Y280759D01*
X328894Y279706D01*
X329589Y278801D01*
X330493Y278107D01*
X330570Y278075D01*
Y270079D01*
X330730Y269272D01*
X331187Y268589D01*
X373983Y225792D01*
X373983Y225792D01*
Y223707D01*
X374016Y223628D01*
Y223544D01*
X374076Y223399D01*
X374136Y223339D01*
X374168Y223261D01*
X374836Y222593D01*
X374914Y222561D01*
X374974Y222501D01*
X375119Y222441D01*
X375203D01*
X375282Y222409D01*
X376687D01*
X376765Y222441D01*
X376850D01*
X376995Y222501D01*
X377055Y222561D01*
X377133Y222593D01*
X377800Y223261D01*
X377833Y223339D01*
X377893Y223399D01*
X377953Y223544D01*
Y223628D01*
X377985Y223707D01*
Y226236D01*
X378092Y226772D01*
X377985Y227307D01*
Y227474D01*
X377953Y227553D01*
Y227637D01*
X377893Y227782D01*
X377833Y227842D01*
X377800Y227920D01*
X377506Y228215D01*
X377474Y228262D01*
X334785Y270952D01*
Y278075D01*
X334861Y278107D01*
X335766Y278801D01*
X336460Y279706D01*
X336896Y280759D01*
X337045Y281890D01*
X336896Y283020D01*
X336460Y284074D01*
X335766Y284979D01*
X334861Y285673D01*
X333808Y286109D01*
X332677Y286258D01*
D02*
G37*
G36*
X413378Y220046D02*
X413295Y220029D01*
X413212Y220046D01*
X412782Y219960D01*
X412711Y219913D01*
X412628Y219897D01*
X412264Y219653D01*
X412217Y219583D01*
X412146Y219535D01*
X411903Y219171D01*
X411886Y219088D01*
X411839Y219017D01*
X411753Y218587D01*
X411762Y218544D01*
X411745Y218504D01*
X411762Y218464D01*
X411753Y218421D01*
X411839Y217991D01*
X411886Y217920D01*
X411903Y217837D01*
X412146Y217472D01*
X412217Y217425D01*
X412264Y217355D01*
X412628Y217111D01*
X412711Y217095D01*
X412782Y217048D01*
X413212Y216962D01*
X413295Y216979D01*
X413378Y216962D01*
X413808Y217048D01*
X413879Y217095D01*
X413962Y217111D01*
X414327Y217355D01*
X414374Y217425D01*
X414444Y217472D01*
X414688Y217837D01*
X414705Y217920D01*
X414752Y217991D01*
X414837Y218421D01*
X414829Y218464D01*
X414845Y218504D01*
X414829Y218544D01*
X414837Y218587D01*
X414752Y219017D01*
X414705Y219088D01*
X414688Y219171D01*
X414444Y219535D01*
X414374Y219583D01*
X414327Y219653D01*
X413962Y219897D01*
X413879Y219913D01*
X413808Y219960D01*
X413378Y220046D01*
D02*
G37*
G36*
X425894Y372816D02*
X420295D01*
X419461Y372706D01*
X418684Y372384D01*
X418017Y371872D01*
X417505Y371205D01*
X417337Y370799D01*
X415658D01*
X415658Y370799D01*
X415197Y370707D01*
X414806Y370446D01*
X409385Y365025D01*
X409124Y364634D01*
X409032Y364173D01*
X409032Y364173D01*
Y276483D01*
X399149Y266600D01*
X398887Y266209D01*
X398796Y265748D01*
X398796Y265748D01*
Y245658D01*
X398517Y245240D01*
X398394Y244626D01*
X398517Y244011D01*
X398865Y243491D01*
X399385Y243143D01*
X400000Y243020D01*
X400615Y243143D01*
X401135Y243491D01*
X401483Y244011D01*
X401606Y244626D01*
X401483Y245240D01*
X401204Y245658D01*
Y265249D01*
X411088Y275133D01*
X411349Y275523D01*
X411441Y275984D01*
Y363674D01*
X416156Y368390D01*
X417337D01*
X417505Y367984D01*
X418017Y367317D01*
X418684Y366805D01*
X419461Y366483D01*
X420295Y366373D01*
X425894D01*
X426728Y366483D01*
X427505Y366805D01*
X428172Y367317D01*
X428684Y367984D01*
X429006Y368761D01*
X429116Y369595D01*
X429006Y370428D01*
X428684Y371205D01*
X428172Y371872D01*
X427505Y372384D01*
X426728Y372706D01*
X425894Y372816D01*
D02*
G37*
G36*
X335894Y432816D02*
X330294D01*
X329461Y432706D01*
X328684Y432384D01*
X328017Y431872D01*
X327505Y431205D01*
X327183Y430428D01*
X327073Y429595D01*
X327183Y428761D01*
X327505Y427984D01*
X328017Y427317D01*
X328684Y426805D01*
X329461Y426483D01*
X330294Y426373D01*
X335894D01*
X336728Y426483D01*
X337505Y426805D01*
X338172Y427317D01*
X338684Y427984D01*
X339006Y428761D01*
X339116Y429595D01*
X339006Y430428D01*
X338684Y431205D01*
X338172Y431872D01*
X337505Y432384D01*
X336728Y432706D01*
X335894Y432816D01*
D02*
G37*
G36*
X425894D02*
X420295D01*
X419461Y432706D01*
X418684Y432384D01*
X418017Y431872D01*
X417505Y431205D01*
X417183Y430428D01*
X417073Y429595D01*
X417183Y428761D01*
X417505Y427984D01*
X418017Y427317D01*
X418684Y426805D01*
X419461Y426483D01*
X420295Y426373D01*
X425894D01*
X426728Y426483D01*
X427505Y426805D01*
X428172Y427317D01*
X428684Y427984D01*
X429006Y428761D01*
X429116Y429595D01*
X429006Y430428D01*
X428684Y431205D01*
X428172Y431872D01*
X427505Y432384D01*
X426728Y432706D01*
X425894Y432816D01*
D02*
G37*
G36*
X335894Y412816D02*
X330294D01*
X329461Y412706D01*
X328684Y412384D01*
X328017Y411872D01*
X327505Y411205D01*
X327183Y410428D01*
X327073Y409594D01*
X327183Y408761D01*
X327505Y407984D01*
X328017Y407317D01*
X328684Y406805D01*
X329461Y406483D01*
X330294Y406373D01*
X335894D01*
X336728Y406483D01*
X337505Y406805D01*
X338172Y407317D01*
X338684Y407984D01*
X339006Y408761D01*
X339116Y409594D01*
X339006Y410428D01*
X338684Y411205D01*
X338172Y411872D01*
X337505Y412384D01*
X336728Y412706D01*
X335894Y412816D01*
D02*
G37*
G36*
X425894Y422816D02*
X420295D01*
X419461Y422706D01*
X418684Y422384D01*
X418017Y421872D01*
X417505Y421205D01*
X417183Y420428D01*
X417073Y419594D01*
X417183Y418761D01*
X417505Y417984D01*
X418017Y417317D01*
X418684Y416805D01*
X419461Y416483D01*
X420295Y416373D01*
X425894D01*
X426728Y416483D01*
X427505Y416805D01*
X428172Y417317D01*
X428684Y417984D01*
X429006Y418761D01*
X429116Y419594D01*
X429006Y420428D01*
X428684Y421205D01*
X428172Y421872D01*
X427505Y422384D01*
X426728Y422706D01*
X425894Y422816D01*
D02*
G37*
G36*
Y412816D02*
X420295D01*
X419461Y412706D01*
X418684Y412384D01*
X418017Y411872D01*
X417505Y411205D01*
X417337Y410799D01*
X402114D01*
X402114Y410799D01*
X401653Y410707D01*
X401263Y410446D01*
X394448Y403631D01*
X394187Y403240D01*
X394095Y402779D01*
X394095Y402779D01*
Y286088D01*
X393092Y285673D01*
X392187Y284979D01*
X391493Y284074D01*
X391056Y283020D01*
X390908Y281890D01*
X391056Y280759D01*
X391493Y279706D01*
X392187Y278801D01*
X393092Y278107D01*
X394145Y277671D01*
X395276Y277522D01*
X396406Y277671D01*
X397460Y278107D01*
X398364Y278801D01*
X399059Y279706D01*
X399495Y280759D01*
X399644Y281890D01*
X399495Y283020D01*
X399059Y284074D01*
X398364Y284979D01*
X397460Y285673D01*
X396503Y286069D01*
Y402281D01*
X402613Y408390D01*
X417337D01*
X417505Y407984D01*
X418017Y407317D01*
X418684Y406805D01*
X419461Y406483D01*
X420295Y406373D01*
X425894D01*
X426728Y406483D01*
X427505Y406805D01*
X428172Y407317D01*
X428684Y407984D01*
X429006Y408761D01*
X429116Y409594D01*
X429006Y410428D01*
X428684Y411205D01*
X428172Y411872D01*
X427505Y412384D01*
X426728Y412706D01*
X425894Y412816D01*
D02*
G37*
G36*
Y382816D02*
X420295D01*
X419461Y382706D01*
X418684Y382384D01*
X418017Y381872D01*
X417505Y381205D01*
X417337Y380799D01*
X410303D01*
X410303Y380799D01*
X409842Y380707D01*
X409452Y380446D01*
X401904Y372899D01*
X401643Y372508D01*
X401552Y372047D01*
X401552Y372047D01*
Y276483D01*
X394818Y269749D01*
X394557Y269358D01*
X394465Y268898D01*
X394465Y268898D01*
Y240658D01*
X394186Y240240D01*
X394064Y239626D01*
X394186Y239012D01*
X394534Y238491D01*
X395055Y238142D01*
X395669Y238020D01*
X396284Y238142D01*
X396805Y238491D01*
X397153Y239012D01*
X397275Y239626D01*
X397153Y240240D01*
X396873Y240658D01*
Y268399D01*
X403607Y275133D01*
X403607Y275133D01*
X403868Y275523D01*
X403960Y275984D01*
Y371548D01*
X410802Y378390D01*
X417337D01*
X417505Y377984D01*
X418017Y377317D01*
X418684Y376805D01*
X419461Y376483D01*
X420295Y376373D01*
X425894D01*
X426728Y376483D01*
X427505Y376805D01*
X428172Y377317D01*
X428684Y377984D01*
X429006Y378761D01*
X429116Y379594D01*
X429006Y380428D01*
X428684Y381205D01*
X428172Y381872D01*
X427505Y382384D01*
X426728Y382706D01*
X425894Y382816D01*
D02*
G37*
G36*
X335894D02*
X330294D01*
X329461Y382706D01*
X328684Y382384D01*
X328017Y381872D01*
X327505Y381205D01*
X327183Y380428D01*
X327073Y379594D01*
X327183Y378761D01*
X327505Y377984D01*
X328017Y377317D01*
X328684Y376805D01*
X329461Y376483D01*
X330294Y376373D01*
X335894D01*
X336728Y376483D01*
X337505Y376805D01*
X338172Y377317D01*
X338684Y377984D01*
X339006Y378761D01*
X339116Y379594D01*
X339006Y380428D01*
X338684Y381205D01*
X338172Y381872D01*
X337505Y382384D01*
X336728Y382706D01*
X335894Y382816D01*
D02*
G37*
G36*
Y392816D02*
X330294D01*
X329461Y392706D01*
X328684Y392384D01*
X328017Y391872D01*
X327505Y391205D01*
X327183Y390428D01*
X327073Y389595D01*
X327183Y388761D01*
X327505Y387984D01*
X328017Y387317D01*
X328684Y386805D01*
X329461Y386483D01*
X330294Y386373D01*
X335894D01*
X336728Y386483D01*
X337505Y386805D01*
X338172Y387317D01*
X338684Y387984D01*
X339006Y388761D01*
X339116Y389595D01*
X339006Y390428D01*
X338684Y391205D01*
X338172Y391872D01*
X337505Y392384D01*
X336728Y392706D01*
X335894Y392816D01*
D02*
G37*
G36*
Y402816D02*
X330294D01*
X329461Y402706D01*
X328684Y402384D01*
X328017Y401872D01*
X327505Y401205D01*
X327183Y400428D01*
X327073Y399594D01*
X327183Y398761D01*
X327505Y397984D01*
X328017Y397317D01*
X328684Y396805D01*
X329461Y396483D01*
X330294Y396373D01*
X335894D01*
X336728Y396483D01*
X337505Y396805D01*
X338172Y397317D01*
X338684Y397984D01*
X339006Y398761D01*
X339116Y399594D01*
X339006Y400428D01*
X338684Y401205D01*
X338172Y401872D01*
X337505Y402384D01*
X336728Y402706D01*
X335894Y402816D01*
D02*
G37*
G36*
X425894Y392816D02*
X420295D01*
X419461Y392706D01*
X418684Y392384D01*
X418017Y391872D01*
X417505Y391205D01*
X417183Y390428D01*
X417073Y389595D01*
X417183Y388761D01*
X417505Y387984D01*
X418017Y387317D01*
X418684Y386805D01*
X419461Y386483D01*
X420295Y386373D01*
X425894D01*
X426728Y386483D01*
X427505Y386805D01*
X428172Y387317D01*
X428684Y387984D01*
X429006Y388761D01*
X429116Y389595D01*
X429006Y390428D01*
X428684Y391205D01*
X428172Y391872D01*
X427505Y392384D01*
X426728Y392706D01*
X425894Y392816D01*
D02*
G37*
%LPD*%
G36*
X377619Y201121D02*
X381042Y197698D01*
X381102Y197553D01*
Y193392D01*
X381042Y193247D01*
X381042Y193247D01*
X380375Y192580D01*
X380230Y192520D01*
X361896D01*
X361751Y192580D01*
X361084Y193247D01*
X361024Y193392D01*
Y197553D01*
X361084Y197698D01*
X361234Y197848D01*
X361234Y197848D01*
X361234Y197848D01*
X364507Y201121D01*
X364652Y201181D01*
X377474D01*
X377619Y201121D01*
D02*
G37*
G36*
X345336Y249940D02*
X346003Y249272D01*
X346063Y249128D01*
Y236699D01*
X346003Y236554D01*
X345336Y235887D01*
X345191Y235827D01*
X339764D01*
X337133Y238458D01*
X337133Y238458D01*
X337008Y238583D01*
X335518D01*
X335373Y238643D01*
X334706Y239310D01*
X334646Y239455D01*
Y241544D01*
Y246372D01*
X334706Y246517D01*
X335373Y247184D01*
X335518Y247244D01*
X337008D01*
X337133Y247369D01*
X339704Y249940D01*
X339848Y250000D01*
X345191D01*
X345336Y249940D01*
D02*
G37*
G36*
X377499Y227619D02*
X377559Y227474D01*
Y227307D01*
Y226236D01*
Y223707D01*
X377499Y223562D01*
X376832Y222895D01*
X376687Y222835D01*
X375282D01*
X375137Y222895D01*
X374469Y223562D01*
X374410Y223707D01*
Y225792D01*
X374410Y225792D01*
X374410Y225792D01*
Y227559D01*
X375197Y228346D01*
X376772D01*
X377499Y227619D01*
D02*
G37*
D24*
X341732Y220472D02*
Y237402D01*
X341732Y220472D02*
X365354Y196850D01*
D25*
X396063Y200394D02*
Y210374D01*
X393307Y213130D02*
X396063Y210374D01*
X398819Y201575D02*
Y212618D01*
X393307Y218130D02*
X398819Y212618D01*
Y201575D02*
X415354Y185039D01*
X396063Y200394D02*
X415354Y181102D01*
X393307Y199213D02*
X415354Y177165D01*
X393307Y199213D02*
Y208130D01*
X341732Y220472D02*
X341732D01*
D26*
X402756Y275984D02*
Y372047D01*
X395669Y268898D02*
X402756Y275984D01*
X395669Y239626D02*
Y268898D01*
X410236Y275984D02*
Y364173D01*
X400000Y265748D02*
X410236Y275984D01*
X400000Y244626D02*
Y265748D01*
X402756Y372047D02*
X410303Y379594D01*
X395299Y281890D02*
Y402779D01*
X415658Y369595D02*
X423095D01*
X410236Y364173D02*
X415658Y369595D01*
X410303Y379594D02*
X423095D01*
X395299Y402779D02*
X402114Y409594D01*
X423095D01*
D28*
X331890Y254724D02*
D03*
Y242913D02*
D03*
D29*
X332677Y281890D02*
D03*
X360677D02*
D03*
X395276D02*
D03*
X423276D02*
D03*
D30*
X377953Y153740D02*
D03*
Y440748D02*
D03*
D31*
X423095Y429595D02*
D03*
Y419594D02*
D03*
Y409594D02*
D03*
Y399594D02*
D03*
Y389595D02*
D03*
Y379594D02*
D03*
Y369595D02*
D03*
Y359594D02*
D03*
X333095D02*
D03*
Y369595D02*
D03*
Y379594D02*
D03*
Y389595D02*
D03*
Y399594D02*
D03*
Y409594D02*
D03*
Y419594D02*
D03*
Y429595D02*
D03*
D32*
X413295Y218504D02*
D03*
Y202756D02*
D03*
D33*
X393307Y208130D02*
D03*
Y213130D02*
D03*
Y218130D02*
D03*
X415354Y177165D02*
D03*
Y181102D02*
D03*
Y185039D02*
D03*
X400000Y244626D02*
D03*
X395669Y239626D02*
D03*
X371654Y244626D02*
D03*
Y249626D02*
D03*
X405512Y210630D02*
D03*
X401575D02*
D03*
X356299Y230315D02*
D03*
X353937D02*
D03*
X351575D02*
D03*
X349213D02*
D03*
X353937Y227953D02*
D03*
X351575D02*
D03*
X349213D02*
D03*
X346850D02*
D03*
X379528Y210630D02*
D03*
X376378D02*
D03*
X377953Y208268D02*
D03*
Y205512D02*
D03*
Y212992D02*
D03*
Y215748D02*
D03*
X381102Y212992D02*
D03*
Y208268D02*
D03*
X374803D02*
D03*
Y212992D02*
D03*
X381102Y215748D02*
D03*
X374803D02*
D03*
X381102Y205512D02*
D03*
X374803D02*
D03*
X327953Y225984D02*
D03*
X330315Y228346D02*
D03*
X332677Y225984D02*
D03*
X327953Y228346D02*
D03*
X332677D02*
D03*
X426772Y259055D02*
D03*
Y263779D02*
D03*
Y268504D02*
D03*
X421260Y203150D02*
D03*
Y205512D02*
D03*
Y218110D02*
D03*
Y215748D02*
D03*
X365354Y199606D02*
D03*
Y194095D02*
D03*
X368110D02*
D03*
X365354Y196850D02*
D03*
X362598D02*
D03*
Y194095D02*
D03*
X368110Y196850D02*
D03*
Y199606D02*
D03*
X336221Y240158D02*
D03*
Y245669D02*
D03*
Y242913D02*
D03*
X341732Y248425D02*
D03*
X344488D02*
D03*
Y245669D02*
D03*
Y242913D02*
D03*
Y240158D02*
D03*
X341732Y237402D02*
D03*
X344488D02*
D03*
X341732Y242913D02*
D03*
X338976D02*
D03*
X374016Y196850D02*
D03*
Y194095D02*
D03*
X376772D02*
D03*
Y196850D02*
D03*
X374016Y199606D02*
D03*
X379528Y196850D02*
D03*
Y194095D02*
D03*
X376772Y199606D02*
D03*
X375984Y224410D02*
D03*
Y226772D02*
D03*
X375197Y290158D02*
D03*
X377953Y287402D02*
D03*
X380709D02*
D03*
X377953Y290158D02*
D03*
X375197Y284646D02*
D03*
Y287402D02*
D03*
X380709Y290158D02*
D03*
X377953Y284646D02*
D03*
X404331Y401968D02*
D03*
X421654Y350394D02*
D03*
X424016D02*
D03*
Y348031D02*
D03*
X421654D02*
D03*
Y345669D02*
D03*
X424016D02*
D03*
X421654Y343307D02*
D03*
X424016D02*
D03*
X421654Y340945D02*
D03*
X424016D02*
D03*
X421654Y338583D02*
D03*
X424016D02*
D03*
X426772Y266142D02*
D03*
Y261417D02*
D03*
Y256693D02*
D03*
Y270866D02*
D03*
X330315Y225984D02*
D03*
X356299Y227953D02*
D03*
X346850Y230315D02*
D03*
X404331Y390158D02*
D03*
X401968D02*
D03*
X404331Y392520D02*
D03*
X401968D02*
D03*
X404331Y394882D02*
D03*
X401968D02*
D03*
Y397244D02*
D03*
X404331D02*
D03*
X401968Y401968D02*
D03*
Y399606D02*
D03*
X404331D02*
D03*
X380709Y284646D02*
D03*
D34*
X405512Y210630D02*
Y221654D01*
X377539Y249626D02*
X405512Y221654D01*
X371654Y249626D02*
X377539D01*
X401575Y210630D02*
Y222047D01*
X378996Y244626D02*
X401575Y222047D01*
X371654Y244626D02*
X378996D01*
D35*
X332677Y270079D02*
X375984Y226772D01*
X332677Y270079D02*
Y281890D01*
M02*
