M48
;Layer_Color=9474304
;FILE_FORMAT=2:5
INCH,LZ
;TYPE=PLATED
T2F00S00C0.01575
T3F00S00C0.02205
T4F00S00C0.03937
T5F00S00C0.04724
;TYPE=NON_PLATED
T1F00S00C0.03543
%
T02
X0327953Y0225984
X0330315
Y0228346
X0327953
X0332677
Y0225984
X034685Y0227953
X0349213
Y0230315
X034685
X0351575
X0353937
Y0227953
X0351575
X0356299
Y0230315
X0344488Y0237402
Y0240158
Y0242913
Y0245669
Y0248425
X0341732
Y0242913
X0338976
X0336221
Y0245669
Y0240158
X0341732Y0237402
X0371654Y0244626
Y0249626
X0375984Y0226772
Y022441
X0374803Y0215748
Y0212992
X0377953
Y0215748
X0381102
Y0212992
X0379528Y021063
X0376378
X0374803Y0208268
Y0205512
X0377953
Y0208268
X0381102
Y0205512
X0379528Y019685
Y0194095
X0376772
X0374016
Y019685
X0376772
Y0199606
X0374016
X036811
Y019685
Y0194095
X0365354
X0362598
Y019685
X0365354
Y0199606
X0393307Y020813
Y021313
Y021813
X0401575Y021063
X0405512
X042126Y0205512
Y020315
Y0215748
Y021811
X0415354Y0185039
Y0181102
Y0177165
X0395669Y0239626
X04Y0244626
X0426772Y0256693
Y0259055
Y0261417
Y0263779
Y0266142
Y0268504
Y0270866
X0380709Y0284646
Y0287402
X0377953
X0375197
Y0284646
X0377953
Y0290158
X0375197
X0380709
X0421654Y0338583
Y0340945
Y0343307
Y0345669
Y0348031
Y0350394
X0424016
Y0348031
Y0345669
Y0343307
Y0340945
Y0338583
X0404331Y0390158
X0401968
Y039252
Y0394882
Y0397244
X0404331
Y0394882
Y039252
Y0399606
Y0401968
X0401968
Y0399606
T03
X0413295Y0202756
Y0218504
T04
X0333095Y0359594
Y0369595
Y0379594
Y0389595
Y0399594
Y0409594
Y0419594
Y0429595
X0423095
Y0419594
Y0409594
Y0399594
Y0389595
Y0379594
Y0369595
Y0359594
T05
X0332677Y028189
X0360677
X0395276
X0423276
T01
X033189Y0242913
Y0254724
M30
