G04 Layer_Color=128*
%FSLAX25Y25*%
%MOIN*%
G70*
G01*
G75*
%ADD40C,0.00200*%
D40*
X330118Y254724D02*
X333661D01*
X331890Y252953D02*
Y256496D01*
X330118Y242913D02*
X333661D01*
X331890Y241142D02*
Y244685D01*
X330315Y281890D02*
X335039D01*
X332677Y279528D02*
Y284252D01*
X358315Y281890D02*
X363039D01*
X360677Y279528D02*
Y284252D01*
X375236Y153740D02*
X380669D01*
X377953Y151024D02*
Y156457D01*
X375236Y440748D02*
X380669D01*
X377953Y438031D02*
Y443465D01*
X421126Y429595D02*
X425063D01*
X423095Y427626D02*
Y431563D01*
X421126Y419594D02*
X425063D01*
X423095Y417626D02*
Y421563D01*
X421126Y409594D02*
X425063D01*
X423095Y407626D02*
Y411563D01*
X421126Y399594D02*
X425063D01*
X423095Y397626D02*
Y401563D01*
X421126Y389595D02*
X425063D01*
X423095Y387626D02*
Y391563D01*
X421126Y379594D02*
X425063D01*
X423095Y377626D02*
Y381563D01*
X421126Y369595D02*
X425063D01*
X423095Y367626D02*
Y371563D01*
X421126Y359594D02*
X425063D01*
X423095Y357626D02*
Y361563D01*
X331126Y359594D02*
X335063D01*
X333095Y357626D02*
Y361563D01*
X331126Y369595D02*
X335063D01*
X333095Y367626D02*
Y371563D01*
X331126Y379594D02*
X335063D01*
X333095Y377626D02*
Y381563D01*
X331126Y389595D02*
X335063D01*
X333095Y387626D02*
Y391563D01*
X331126Y399594D02*
X335063D01*
X333095Y397626D02*
Y401563D01*
X331126Y409594D02*
X335063D01*
X333095Y407626D02*
Y411563D01*
X331126Y419594D02*
X335063D01*
X333095Y417626D02*
Y421563D01*
X331126Y429595D02*
X335063D01*
X333095Y427626D02*
Y431563D01*
X412193Y218504D02*
X414398D01*
X413295Y217402D02*
Y219606D01*
X412193Y202756D02*
X414398D01*
X413295Y201654D02*
Y203858D01*
X392913Y281890D02*
X397638D01*
X395276Y279528D02*
Y284252D01*
X420913Y281890D02*
X425638D01*
X423276Y279528D02*
Y284252D01*
X392520Y208130D02*
X394094D01*
X393307Y207343D02*
Y208917D01*
X392520Y213130D02*
X394094D01*
X393307Y212343D02*
Y213917D01*
X392520Y218130D02*
X394094D01*
X393307Y217342D02*
Y218917D01*
X414567Y177165D02*
X416142D01*
X415354Y176378D02*
Y177953D01*
X414567Y181102D02*
X416142D01*
X415354Y180315D02*
Y181890D01*
X414567Y185039D02*
X416142D01*
X415354Y184252D02*
Y185827D01*
X399213Y244626D02*
X400787D01*
X400000Y243839D02*
Y245413D01*
X394882Y239626D02*
X396457D01*
X395669Y238839D02*
Y240413D01*
X370866Y244626D02*
X372441D01*
X371654Y243839D02*
Y245413D01*
X370866Y249626D02*
X372441D01*
X371654Y248839D02*
Y250413D01*
X404724Y210630D02*
X406299D01*
X405512Y209842D02*
Y211417D01*
X400787Y210630D02*
X402362D01*
X401575Y209842D02*
Y211417D01*
X355512Y230315D02*
X357087D01*
X356299Y229528D02*
Y231102D01*
X353150Y230315D02*
X354724D01*
X353937Y229528D02*
Y231102D01*
X350787Y230315D02*
X352362D01*
X351575Y229528D02*
Y231102D01*
X348425Y230315D02*
X350000D01*
X349213Y229528D02*
Y231102D01*
X353150Y227953D02*
X354724D01*
X353937Y227165D02*
Y228740D01*
X350787Y227953D02*
X352362D01*
X351575Y227165D02*
Y228740D01*
X348425Y227953D02*
X350000D01*
X349213Y227165D02*
Y228740D01*
X346063Y227953D02*
X347638D01*
X346850Y227165D02*
Y228740D01*
X378740Y210630D02*
X380315D01*
X379528Y209842D02*
Y211417D01*
X375590Y210630D02*
X377165D01*
X376378Y209842D02*
Y211417D01*
X377165Y208268D02*
X378740D01*
X377953Y207480D02*
Y209055D01*
X377165Y205512D02*
X378740D01*
X377953Y204724D02*
Y206299D01*
X377165Y212992D02*
X378740D01*
X377953Y212205D02*
Y213779D01*
X377165Y215748D02*
X378740D01*
X377953Y214961D02*
Y216535D01*
X380315Y212992D02*
X381890D01*
X381102Y212205D02*
Y213779D01*
X380315Y208268D02*
X381890D01*
X381102Y207480D02*
Y209055D01*
X374016Y208268D02*
X375590D01*
X374803Y207480D02*
Y209055D01*
X374016Y212992D02*
X375590D01*
X374803Y212205D02*
Y213779D01*
X380315Y215748D02*
X381890D01*
X381102Y214961D02*
Y216535D01*
X374016Y215748D02*
X375590D01*
X374803Y214961D02*
Y216535D01*
X380315Y205512D02*
X381890D01*
X381102Y204724D02*
Y206299D01*
X374016Y205512D02*
X375590D01*
X374803Y204724D02*
Y206299D01*
X327165Y225984D02*
X328740D01*
X327953Y225197D02*
Y226772D01*
X329528Y228346D02*
X331102D01*
X330315Y227559D02*
Y229134D01*
X331890Y225984D02*
X333465D01*
X332677Y225197D02*
Y226772D01*
X327165Y228346D02*
X328740D01*
X327953Y227559D02*
Y229134D01*
X331890Y228346D02*
X333465D01*
X332677Y227559D02*
Y229134D01*
X425984Y259055D02*
X427559D01*
X426772Y258268D02*
Y259842D01*
X425984Y263779D02*
X427559D01*
X426772Y262992D02*
Y264567D01*
X425984Y268504D02*
X427559D01*
X426772Y267717D02*
Y269291D01*
X420472Y203150D02*
X422047D01*
X421260Y202362D02*
Y203937D01*
X420472Y205512D02*
X422047D01*
X421260Y204724D02*
Y206299D01*
X420472Y218110D02*
X422047D01*
X421260Y217323D02*
Y218898D01*
X420472Y215748D02*
X422047D01*
X421260Y214961D02*
Y216535D01*
X364567Y199606D02*
X366142D01*
X365354Y198819D02*
Y200394D01*
X364567Y194095D02*
X366142D01*
X365354Y193307D02*
Y194882D01*
X367323Y194095D02*
X368898D01*
X368110Y193307D02*
Y194882D01*
X364567Y196850D02*
X366142D01*
X365354Y196063D02*
Y197638D01*
X361811Y196850D02*
X363386D01*
X362598Y196063D02*
Y197638D01*
X361811Y194095D02*
X363386D01*
X362598Y193307D02*
Y194882D01*
X367323Y196850D02*
X368898D01*
X368110Y196063D02*
Y197638D01*
X367323Y199606D02*
X368898D01*
X368110Y198819D02*
Y200394D01*
X335433Y240158D02*
X337008D01*
X336221Y239370D02*
Y240945D01*
X335433Y245669D02*
X337008D01*
X336221Y244882D02*
Y246457D01*
X335433Y242913D02*
X337008D01*
X336221Y242126D02*
Y243701D01*
X340945Y248425D02*
X342520D01*
X341732Y247638D02*
Y249213D01*
X343701Y248425D02*
X345276D01*
X344488Y247638D02*
Y249213D01*
X343701Y245669D02*
X345276D01*
X344488Y244882D02*
Y246457D01*
X343701Y242913D02*
X345276D01*
X344488Y242126D02*
Y243701D01*
X343701Y240158D02*
X345276D01*
X344488Y239370D02*
Y240945D01*
X340945Y237402D02*
X342520D01*
X341732Y236614D02*
Y238189D01*
X343701Y237402D02*
X345276D01*
X344488Y236614D02*
Y238189D01*
X340945Y242913D02*
X342520D01*
X341732Y242126D02*
Y243701D01*
X338189Y242913D02*
X339764D01*
X338976Y242126D02*
Y243701D01*
X373228Y196850D02*
X374803D01*
X374016Y196063D02*
Y197638D01*
X373228Y194095D02*
X374803D01*
X374016Y193307D02*
Y194882D01*
X375984Y194095D02*
X377559D01*
X376772Y193307D02*
Y194882D01*
X375984Y196850D02*
X377559D01*
X376772Y196063D02*
Y197638D01*
X373228Y199606D02*
X374803D01*
X374016Y198819D02*
Y200394D01*
X378740Y196850D02*
X380315D01*
X379528Y196063D02*
Y197638D01*
X378740Y194095D02*
X380315D01*
X379528Y193307D02*
Y194882D01*
X375984Y199606D02*
X377559D01*
X376772Y198819D02*
Y200394D01*
X375197Y224410D02*
X376772D01*
X375984Y223622D02*
Y225197D01*
X375197Y226772D02*
X376772D01*
X375984Y225984D02*
Y227559D01*
X374410Y290158D02*
X375984D01*
X375197Y289370D02*
Y290945D01*
X377165Y287402D02*
X378740D01*
X377953Y286614D02*
Y288189D01*
X379921Y287402D02*
X381496D01*
X380709Y286614D02*
Y288189D01*
X377165Y290158D02*
X378740D01*
X377953Y289370D02*
Y290945D01*
X374410Y284646D02*
X375984D01*
X375197Y283858D02*
Y285433D01*
X374410Y287402D02*
X375984D01*
X375197Y286614D02*
Y288189D01*
X379921Y290158D02*
X381496D01*
X380709Y289370D02*
Y290945D01*
X377165Y284646D02*
X378740D01*
X377953Y283858D02*
Y285433D01*
X403543Y401968D02*
X405118D01*
X404331Y401181D02*
Y402756D01*
X420866Y350394D02*
X422441D01*
X421654Y349606D02*
Y351181D01*
X423228Y350394D02*
X424803D01*
X424016Y349606D02*
Y351181D01*
X423228Y348031D02*
X424803D01*
X424016Y347244D02*
Y348819D01*
X420866Y348031D02*
X422441D01*
X421654Y347244D02*
Y348819D01*
X420866Y345669D02*
X422441D01*
X421654Y344882D02*
Y346457D01*
X423228Y345669D02*
X424803D01*
X424016Y344882D02*
Y346457D01*
X420866Y343307D02*
X422441D01*
X421654Y342520D02*
Y344094D01*
X423228Y343307D02*
X424803D01*
X424016Y342520D02*
Y344094D01*
X420866Y340945D02*
X422441D01*
X421654Y340158D02*
Y341732D01*
X423228Y340945D02*
X424803D01*
X424016Y340158D02*
Y341732D01*
X420866Y338583D02*
X422441D01*
X421654Y337795D02*
Y339370D01*
X423228Y338583D02*
X424803D01*
X424016Y337795D02*
Y339370D01*
X425984Y266142D02*
X427559D01*
X426772Y265354D02*
Y266929D01*
X425984Y261417D02*
X427559D01*
X426772Y260630D02*
Y262205D01*
X425984Y256693D02*
X427559D01*
X426772Y255906D02*
Y257480D01*
X425984Y270866D02*
X427559D01*
X426772Y270079D02*
Y271654D01*
X329528Y225984D02*
X331102D01*
X330315Y225197D02*
Y226772D01*
X355512Y227953D02*
X357087D01*
X356299Y227165D02*
Y228740D01*
X346063Y230315D02*
X347638D01*
X346850Y229528D02*
Y231102D01*
X403543Y390158D02*
X405118D01*
X404331Y389370D02*
Y390945D01*
X401181Y390158D02*
X402756D01*
X401968Y389370D02*
Y390945D01*
X403543Y392520D02*
X405118D01*
X404331Y391732D02*
Y393307D01*
X401181Y392520D02*
X402756D01*
X401968Y391732D02*
Y393307D01*
X403543Y394882D02*
X405118D01*
X404331Y394094D02*
Y395669D01*
X401181Y394882D02*
X402756D01*
X401968Y394094D02*
Y395669D01*
X401181Y397244D02*
X402756D01*
X401968Y396457D02*
Y398031D01*
X403543Y397244D02*
X405118D01*
X404331Y396457D02*
Y398031D01*
X401181Y401968D02*
X402756D01*
X401968Y401181D02*
Y402756D01*
X401181Y399606D02*
X402756D01*
X401968Y398819D02*
Y400394D01*
X403543Y399606D02*
X405118D01*
X404331Y398819D02*
Y400394D01*
X379921Y284646D02*
X381496D01*
X380709Y283858D02*
Y285433D01*
M02*
