G04 Layer_Physical_Order=1*
G04 Layer_Color=255*
%FSLAX25Y25*%
%MOIN*%
G70*
G01*
G75*
%ADD10R,0.02756X0.03543*%
%ADD11R,0.04331X0.06693*%
%ADD12R,0.10236X0.04331*%
%ADD13R,0.04331X0.02756*%
%ADD14R,0.03150X0.03937*%
%ADD15R,0.05118X0.02756*%
%ADD16R,0.09449X0.13386*%
%ADD17R,0.22441X0.06299*%
G04:AMPARAMS|DCode=18|XSize=78.74mil|YSize=15.75mil|CornerRadius=0mil|HoleSize=0mil|Usage=FLASHONLY|Rotation=180.000|XOffset=0mil|YOffset=0mil|HoleType=Round|Shape=Octagon|*
%AMOCTAGOND18*
4,1,8,-0.03937,0.00394,-0.03937,-0.00394,-0.03543,-0.00787,0.03543,-0.00787,0.03937,-0.00394,0.03937,0.00394,0.03543,0.00787,-0.03543,0.00787,-0.03937,0.00394,0.0*
%
%ADD18OCTAGOND18*%

%ADD19R,0.07480X0.09000*%
%ADD20R,0.07480X0.07087*%
G04:AMPARAMS|DCode=21|XSize=36.61mil|YSize=51.58mil|CornerRadius=2.75mil|HoleSize=0mil|Usage=FLASHONLY|Rotation=180.000|XOffset=0mil|YOffset=0mil|HoleType=Round|Shape=RoundedRectangle|*
%AMROUNDEDRECTD21*
21,1,0.03661,0.04608,0,0,180.0*
21,1,0.03112,0.05158,0,0,180.0*
1,1,0.00549,-0.01556,0.02304*
1,1,0.00549,0.01556,0.02304*
1,1,0.00549,0.01556,-0.02304*
1,1,0.00549,-0.01556,-0.02304*
%
%ADD21ROUNDEDRECTD21*%
G04:AMPARAMS|DCode=22|XSize=127.56mil|YSize=51.58mil|CornerRadius=3.87mil|HoleSize=0mil|Usage=FLASHONLY|Rotation=180.000|XOffset=0mil|YOffset=0mil|HoleType=Round|Shape=RoundedRectangle|*
%AMROUNDEDRECTD22*
21,1,0.12756,0.04384,0,0,180.0*
21,1,0.11982,0.05158,0,0,180.0*
1,1,0.00774,-0.05991,0.02192*
1,1,0.00774,0.05991,0.02192*
1,1,0.00774,0.05991,-0.02192*
1,1,0.00774,-0.05991,-0.02192*
%
%ADD22ROUNDEDRECTD22*%
%ADD23C,0.02756*%
%ADD24C,0.03543*%
%ADD25C,0.01000*%
%ADD26C,0.01575*%
%ADD27C,0.02362*%
%ADD28C,0.03543*%
%ADD29C,0.07874*%
%ADD30O,0.27087X0.13543*%
%ADD31O,0.11200X0.05600*%
%ADD32C,0.01575*%
%ADD33C,0.02362*%
G36*
X430201Y226751D02*
X426528Y223078D01*
X426385Y222892D01*
X426295Y222674D01*
X426264Y222441D01*
Y198819D01*
X426295Y198586D01*
X426385Y198368D01*
X426528Y198181D01*
X430201Y194509D01*
Y144602D01*
X325705D01*
Y449886D01*
X430201D01*
Y226751D01*
D02*
G37*
%LPC*%
G36*
X369685Y236405D02*
X364567D01*
X364413Y236375D01*
X364283Y236288D01*
X364196Y236157D01*
X364165Y236004D01*
Y233248D01*
X364196Y233094D01*
X364283Y232964D01*
X364413Y232877D01*
X364567Y232847D01*
X369685D01*
X369839Y232877D01*
X369969Y232964D01*
X370056Y233094D01*
X370087Y233248D01*
Y236004D01*
X370056Y236157D01*
X369969Y236288D01*
X369839Y236375D01*
X369685Y236405D01*
D02*
G37*
G36*
X391339Y241405D02*
X386221D01*
X386067Y241375D01*
X385937Y241288D01*
X385850Y241158D01*
X385819Y241004D01*
Y238248D01*
X385850Y238094D01*
X385937Y237964D01*
X386067Y237877D01*
X386221Y237847D01*
X391339D01*
X391492Y237877D01*
X391622Y237964D01*
X391709Y238094D01*
X391740Y238248D01*
Y238435D01*
X394638D01*
X394790Y238310D01*
X395064Y238164D01*
X395361Y238074D01*
X395669Y238044D01*
X395978Y238074D01*
X396275Y238164D01*
X396548Y238310D01*
X396788Y238507D01*
X396985Y238747D01*
X397131Y239020D01*
X397221Y239317D01*
X397252Y239626D01*
X397221Y239935D01*
X397131Y240232D01*
X396985Y240505D01*
X396788Y240745D01*
X396548Y240942D01*
X396275Y241088D01*
X395978Y241178D01*
X395669Y241208D01*
X395361Y241178D01*
X395064Y241088D01*
X394790Y240942D01*
X394638Y240817D01*
X391740D01*
Y241004D01*
X391709Y241158D01*
X391622Y241288D01*
X391492Y241375D01*
X391339Y241405D01*
D02*
G37*
G36*
X368504Y227764D02*
X365748D01*
X365594Y227733D01*
X365464Y227646D01*
X365377Y227516D01*
X365347Y227362D01*
Y223819D01*
X365377Y223665D01*
X365464Y223535D01*
X365544Y223482D01*
Y219909D01*
X364567D01*
X364413Y219879D01*
X364283Y219792D01*
X364196Y219661D01*
X364165Y219508D01*
Y217719D01*
X363165Y217305D01*
X359330Y221141D01*
X359060Y221362D01*
X358752Y221527D01*
X358418Y221628D01*
X358079Y221661D01*
Y223031D01*
X358048Y223185D01*
X357961Y223315D01*
X357831Y223402D01*
X357677Y223433D01*
X335236D01*
X335083Y223402D01*
X334952Y223315D01*
X334865Y223185D01*
X334835Y223031D01*
Y221662D01*
X332874D01*
X332874Y221662D01*
X332527Y221628D01*
X332193Y221527D01*
X331885Y221362D01*
X331615Y221141D01*
X328269Y217794D01*
X328047Y217525D01*
X327883Y217217D01*
X327782Y216883D01*
X327747Y216535D01*
X327747Y216535D01*
Y194488D01*
X327747Y194488D01*
X327782Y194141D01*
X327883Y193807D01*
X328047Y193499D01*
X328269Y193229D01*
X332599Y188899D01*
X332599Y188899D01*
X332869Y188677D01*
X333177Y188513D01*
X333511Y188411D01*
X333858Y188377D01*
X333858Y188377D01*
X336423D01*
X336895Y188352D01*
X337311Y188279D01*
X337663Y188162D01*
X337957Y188004D01*
X338199Y187805D01*
X338397Y187563D01*
X338555Y187269D01*
X338673Y186917D01*
X338746Y186502D01*
X338771Y186029D01*
Y161417D01*
X338771Y161417D01*
X338805Y161070D01*
X338907Y160736D01*
X339071Y160428D01*
X339292Y160159D01*
X346970Y152481D01*
X346970Y152481D01*
X347239Y152260D01*
X347547Y152095D01*
X347881Y151994D01*
X348228Y151960D01*
X348229Y151960D01*
X364237D01*
X364407Y151370D01*
X364715Y150626D01*
X365105Y149922D01*
X365570Y149266D01*
X366107Y148665D01*
X366707Y148129D01*
X367363Y147663D01*
X368067Y147274D01*
X368811Y146966D01*
X369584Y146743D01*
X370378Y146609D01*
X371181Y146563D01*
X384724D01*
X385528Y146609D01*
X386321Y146743D01*
X387095Y146966D01*
X387838Y147274D01*
X388543Y147663D01*
X389199Y148129D01*
X389799Y148665D01*
X390335Y149266D01*
X390801Y149922D01*
X391190Y150626D01*
X391498Y151370D01*
X391721Y152143D01*
X391856Y152937D01*
X391901Y153740D01*
X391856Y154544D01*
X391721Y155337D01*
X391498Y156110D01*
X391190Y156854D01*
X390801Y157558D01*
X390335Y158215D01*
X389799Y158815D01*
X389199Y159351D01*
X388543Y159817D01*
X387838Y160206D01*
X387095Y160514D01*
X386321Y160737D01*
X385528Y160872D01*
X384724Y160917D01*
X371181D01*
X370378Y160872D01*
X369584Y160737D01*
X368811Y160514D01*
X368067Y160206D01*
X367363Y159817D01*
X366707Y159351D01*
X366107Y158815D01*
X365570Y158215D01*
X365105Y157558D01*
X364715Y156854D01*
X364407Y156110D01*
X364237Y155520D01*
X348966D01*
X342331Y162155D01*
Y186029D01*
X342356Y186502D01*
X342429Y186917D01*
X342547Y187269D01*
X342705Y187563D01*
X342903Y187805D01*
X343146Y188004D01*
X343439Y188162D01*
X343792Y188279D01*
X343874Y188294D01*
X344874Y187992D01*
X344905Y187838D01*
X344992Y187708D01*
X345122Y187621D01*
X345276Y187591D01*
X355512D01*
X355665Y187621D01*
X355796Y187708D01*
X355883Y187838D01*
X355913Y187992D01*
Y192323D01*
X355883Y192476D01*
X355796Y192607D01*
X355665Y192694D01*
X355512Y192724D01*
X345276D01*
X345122Y192694D01*
X344992Y192607D01*
X344905Y192476D01*
X344874Y192323D01*
Y191938D01*
X334596D01*
X331308Y195226D01*
Y215798D01*
X333611Y218102D01*
X334835D01*
Y216732D01*
X334865Y216579D01*
X334952Y216448D01*
X335083Y216361D01*
X335236Y216331D01*
X357677D01*
X357831Y216361D01*
X357961Y216448D01*
X358699Y216462D01*
X359033Y216403D01*
X363564Y211871D01*
X363564Y211871D01*
X363834Y211650D01*
X364142Y211485D01*
X364354Y211421D01*
X364413Y211381D01*
X364567Y211351D01*
X364814D01*
X364823Y211350D01*
X364823Y211350D01*
X367126D01*
X367135Y211351D01*
X369685D01*
X369839Y211381D01*
X369969Y211468D01*
X370056Y211598D01*
X370087Y211752D01*
Y214508D01*
X370056Y214662D01*
X369969Y214792D01*
X369839Y214879D01*
X369685Y214909D01*
X367135D01*
X367126Y214910D01*
X365986D01*
X365653Y215351D01*
X366150Y216351D01*
X369685D01*
X369839Y216381D01*
X369969Y216468D01*
X370056Y216598D01*
X370087Y216752D01*
Y219508D01*
X370056Y219661D01*
X369969Y219792D01*
X369839Y219879D01*
X369685Y219909D01*
X368708D01*
Y223482D01*
X368788Y223535D01*
X368875Y223665D01*
X368905Y223819D01*
Y227362D01*
X368875Y227516D01*
X368788Y227646D01*
X368657Y227733D01*
X368504Y227764D01*
D02*
G37*
G36*
X376687Y228748D02*
X372526D01*
X372372Y228717D01*
X372227Y228657D01*
X372097Y228570D01*
X371430Y227903D01*
X371343Y227773D01*
X371283Y227628D01*
X371252Y227474D01*
Y223707D01*
X371283Y223553D01*
X371343Y223409D01*
X371430Y223278D01*
X372097Y222611D01*
X372227Y222524D01*
X372372Y222464D01*
X372526Y222433D01*
X376687D01*
X376840Y222464D01*
X376985Y222524D01*
X377115Y222611D01*
X377783Y223278D01*
X377870Y223409D01*
X377930Y223553D01*
X377960Y223707D01*
Y227474D01*
X377930Y227628D01*
X377870Y227773D01*
X377783Y227903D01*
X377115Y228570D01*
X376985Y228657D01*
X376840Y228717D01*
X376794Y228727D01*
X376687Y228748D01*
D02*
G37*
G36*
X345191Y250401D02*
X339848D01*
X339695Y250371D01*
X339550Y250311D01*
X339420Y250224D01*
X336842Y247645D01*
X335518D01*
X335364Y247615D01*
X335220Y247555D01*
X335089Y247468D01*
X334422Y246800D01*
X334335Y246670D01*
X334275Y246526D01*
X334244Y246372D01*
Y245046D01*
X333911Y244784D01*
X333244Y244613D01*
X333133Y244704D01*
X333099Y244723D01*
X333099Y244723D01*
X333099Y244723D01*
X333068Y244748D01*
X332760Y244912D01*
X332722Y244924D01*
X332687Y244942D01*
X332354Y245043D01*
X332314Y245047D01*
X332314Y245047D01*
X332276Y245059D01*
X331929Y245093D01*
X331890Y245089D01*
X331890D01*
X331850Y245093D01*
X331503Y245059D01*
X331465Y245047D01*
X331465Y245047D01*
X331426Y245043D01*
X331092Y244942D01*
X331057Y244924D01*
X331019Y244912D01*
X330712Y244748D01*
X330681Y244723D01*
X330681Y244723D01*
X330681Y244723D01*
X330646Y244704D01*
X330376Y244482D01*
X330351Y244452D01*
X330321Y244427D01*
X330099Y244157D01*
X330081Y244122D01*
X330081Y244122D01*
X330081Y244122D01*
X330055Y244092D01*
X329891Y243784D01*
X329880Y243746D01*
X329861Y243711D01*
X329760Y243377D01*
X329756Y243338D01*
X329756Y243338D01*
X329744Y243300D01*
X329710Y242953D01*
X329712Y242933D01*
X329708Y242913D01*
X329712Y242894D01*
X329710Y242874D01*
X329744Y242527D01*
X329756Y242489D01*
X329756Y242489D01*
X329760Y242450D01*
X329861Y242116D01*
X329880Y242081D01*
X329891Y242043D01*
X330055Y241735D01*
X330081Y241705D01*
X330081Y241705D01*
X330081Y241705D01*
X330099Y241670D01*
X330321Y241400D01*
X330351Y241375D01*
X330376Y241344D01*
X330646Y241123D01*
X330681Y241104D01*
X330681Y241104D01*
X330681Y241104D01*
X330712Y241079D01*
X331019Y240915D01*
X331057Y240903D01*
X331092Y240884D01*
X331426Y240783D01*
X331465Y240779D01*
X331465Y240779D01*
X331503Y240768D01*
X331850Y240734D01*
X331890Y240738D01*
X331890D01*
X331929Y240734D01*
X332276Y240768D01*
X332314Y240779D01*
X332314Y240779D01*
X332354Y240783D01*
X332687Y240884D01*
X332722Y240903D01*
X332760Y240915D01*
X333068Y241079D01*
X333099Y241104D01*
X333099Y241104D01*
X333099Y241104D01*
X333133Y241123D01*
X333244Y241214D01*
X333911Y241043D01*
X334244Y240781D01*
X334244Y239455D01*
X334275Y239301D01*
X334335Y239157D01*
X334422Y239026D01*
X335089Y238359D01*
X335138Y238326D01*
X335220Y238272D01*
X335364Y238212D01*
X335434Y238198D01*
X335518Y238181D01*
X336842D01*
X336849Y238174D01*
X336849Y238174D01*
X339420Y235603D01*
X339550Y235516D01*
X339695Y235456D01*
X339848Y235425D01*
X345191D01*
X345344Y235456D01*
X345489Y235516D01*
X345619Y235603D01*
X346287Y236270D01*
X346374Y236401D01*
X346434Y236545D01*
X346464Y236699D01*
Y249128D01*
X346434Y249282D01*
X346374Y249426D01*
X346287Y249556D01*
X345619Y250224D01*
X345489Y250311D01*
X345344Y250371D01*
X345298Y250380D01*
X345191Y250401D01*
D02*
G37*
G36*
X385433Y261622D02*
X381102D01*
X380949Y261591D01*
X380819Y261504D01*
X380732Y261374D01*
X380701Y261221D01*
Y254528D01*
X380732Y254374D01*
X380819Y254244D01*
X380949Y254157D01*
X381102Y254126D01*
X381487D01*
Y251772D01*
X381487Y251772D01*
X381522Y251424D01*
X381623Y251090D01*
X381787Y250783D01*
X382009Y250513D01*
X384155Y248367D01*
X384155Y248367D01*
X384424Y248146D01*
X384732Y247981D01*
X385066Y247880D01*
X385413Y247846D01*
X385414Y247846D01*
X388779D01*
X388788Y247847D01*
X391339D01*
X391492Y247877D01*
X391622Y247964D01*
X391709Y248094D01*
X391740Y248248D01*
Y251004D01*
X391709Y251157D01*
X391622Y251288D01*
X391492Y251375D01*
X391339Y251405D01*
X388788D01*
X388779Y251406D01*
X386151D01*
X385048Y252509D01*
Y254126D01*
X385433D01*
X385587Y254157D01*
X385717Y254244D01*
X385804Y254374D01*
X385835Y254528D01*
Y261221D01*
X385804Y261374D01*
X385717Y261504D01*
X385587Y261591D01*
X385433Y261622D01*
D02*
G37*
G36*
X371654Y246406D02*
X367126D01*
X367117Y246405D01*
X364567D01*
X364413Y246375D01*
X364283Y246288D01*
X364196Y246158D01*
X364165Y246004D01*
Y243248D01*
X364196Y243094D01*
X364283Y242964D01*
X364413Y242877D01*
X364567Y242847D01*
X367117D01*
X367126Y242846D01*
X371654D01*
X372001Y242880D01*
X372335Y242981D01*
X372643Y243146D01*
X372912Y243367D01*
X373134Y243637D01*
X373298Y243945D01*
X373399Y244279D01*
X373434Y244626D01*
X373399Y244973D01*
X373298Y245307D01*
X373134Y245615D01*
X372912Y245885D01*
X372643Y246106D01*
X372335Y246271D01*
X372001Y246372D01*
X371654Y246406D01*
D02*
G37*
G36*
X391339Y246405D02*
X386221D01*
X386067Y246375D01*
X385937Y246288D01*
X385850Y246158D01*
X385819Y246004D01*
Y243248D01*
X385850Y243094D01*
X385937Y242964D01*
X386067Y242877D01*
X386221Y242847D01*
X391339D01*
X391492Y242877D01*
X391622Y242964D01*
X391709Y243094D01*
X391740Y243248D01*
Y243435D01*
X398969D01*
X399121Y243310D01*
X399394Y243164D01*
X399691Y243074D01*
X400000Y243044D01*
X400309Y243074D01*
X400606Y243164D01*
X400879Y243310D01*
X401119Y243507D01*
X401316Y243747D01*
X401462Y244020D01*
X401552Y244317D01*
X401582Y244626D01*
X401552Y244935D01*
X401462Y245232D01*
X401316Y245505D01*
X401119Y245745D01*
X400879Y245942D01*
X400606Y246088D01*
X400309Y246178D01*
X400000Y246208D01*
X399691Y246178D01*
X399394Y246088D01*
X399121Y245942D01*
X398969Y245817D01*
X391740D01*
Y246004D01*
X391709Y246158D01*
X391622Y246288D01*
X391492Y246375D01*
X391339Y246405D01*
D02*
G37*
G36*
Y236405D02*
X386221D01*
X386067Y236375D01*
X385937Y236288D01*
X385850Y236157D01*
X385819Y236004D01*
Y233248D01*
X385850Y233094D01*
X385937Y232964D01*
X386067Y232877D01*
X386221Y232847D01*
X391339D01*
X391492Y232877D01*
X391622Y232964D01*
X391709Y233094D01*
X391740Y233248D01*
Y233435D01*
X395589D01*
X397234Y231790D01*
Y207351D01*
X397226Y207132D01*
X397196Y206861D01*
X397146Y206601D01*
X397077Y206349D01*
X396988Y206107D01*
X396880Y205873D01*
X396751Y205646D01*
X396602Y205427D01*
X396432Y205214D01*
X396282Y205054D01*
X395550Y204321D01*
X391740D01*
Y204508D01*
X391709Y204661D01*
X391622Y204792D01*
X391492Y204879D01*
X391339Y204909D01*
X386221D01*
X386067Y204879D01*
X385937Y204792D01*
X385850Y204661D01*
X385819Y204508D01*
Y201752D01*
X385850Y201598D01*
X385937Y201468D01*
X386067Y201381D01*
X386221Y201351D01*
X391339D01*
X391492Y201381D01*
X391622Y201468D01*
X391709Y201598D01*
X391740Y201752D01*
Y201939D01*
X396043D01*
X396352Y201979D01*
X396639Y202098D01*
X396886Y202288D01*
X397967Y203369D01*
X398128Y203518D01*
X398340Y203689D01*
X398560Y203838D01*
X398786Y203966D01*
X399020Y204075D01*
X399263Y204164D01*
X399514Y204233D01*
X399775Y204283D01*
X400045Y204313D01*
X400264Y204321D01*
X403186D01*
X403403Y204309D01*
X403618Y204271D01*
X403793Y204213D01*
X403933Y204137D01*
X404045Y204046D01*
X404137Y203933D01*
X404213Y203793D01*
X404271Y203618D01*
X404309Y203403D01*
X404320Y203186D01*
Y200598D01*
X404134D01*
X403980Y200568D01*
X403850Y200481D01*
X403763Y200350D01*
X403732Y200197D01*
Y196653D01*
X403763Y196500D01*
X403850Y196370D01*
X403980Y196283D01*
X404134Y196252D01*
X404320D01*
Y192724D01*
X400394D01*
X400240Y192694D01*
X400110Y192607D01*
X400023Y192476D01*
X399992Y192323D01*
Y187992D01*
X400023Y187838D01*
X400110Y187708D01*
X400240Y187621D01*
X400394Y187591D01*
X410630D01*
X410783Y187621D01*
X410914Y187708D01*
X411001Y187838D01*
X411031Y187992D01*
Y192323D01*
X411001Y192476D01*
X410914Y192607D01*
X410783Y192694D01*
X410630Y192724D01*
X406703D01*
Y196252D01*
X406890D01*
X407043Y196283D01*
X407174Y196370D01*
X407261Y196500D01*
X407291Y196653D01*
Y200197D01*
X407261Y200350D01*
X407174Y200481D01*
X407043Y200568D01*
X406890Y200598D01*
X406703D01*
Y203186D01*
X406714Y203403D01*
X406752Y203618D01*
X406811Y203793D01*
X406886Y203933D01*
X406978Y204045D01*
X407091Y204137D01*
X407231Y204213D01*
X407406Y204271D01*
X407620Y204309D01*
X407837Y204321D01*
X410923D01*
X410964Y204315D01*
X411006Y204321D01*
X411260D01*
X411279Y204323D01*
X411342D01*
X411649Y203972D01*
X411903Y203323D01*
X411850Y203197D01*
X411840Y203146D01*
X411823Y203096D01*
X411785Y202808D01*
X411787Y202782D01*
X411782Y202756D01*
X411787Y202730D01*
X411785Y202703D01*
X411823Y202416D01*
X411840Y202366D01*
X411850Y202314D01*
X411962Y202046D01*
X411991Y202003D01*
X412014Y201956D01*
X412191Y201725D01*
X412230Y201691D01*
X412265Y201651D01*
X412495Y201474D01*
X412542Y201451D01*
X412586Y201422D01*
X412854Y201311D01*
X412905Y201301D01*
X412955Y201284D01*
X413243Y201246D01*
X413295Y201250D01*
X413348Y201246D01*
X413635Y201284D01*
X413685Y201301D01*
X413737Y201311D01*
X414005Y201422D01*
X414048Y201451D01*
X414096Y201474D01*
X414326Y201651D01*
X414361Y201691D01*
X414400Y201725D01*
X414577Y201956D01*
X414600Y202003D01*
X414629Y202046D01*
X414740Y202314D01*
X414750Y202366D01*
X414767Y202416D01*
X414805Y202703D01*
X414803Y202730D01*
X414809Y202756D01*
X414803Y202782D01*
X414805Y202808D01*
X414767Y203096D01*
X414750Y203146D01*
X414740Y203197D01*
X414688Y203323D01*
X414724Y203635D01*
X414815Y203917D01*
X414892Y204103D01*
X415087Y204440D01*
X415116Y204470D01*
X415481Y204834D01*
X415568Y204964D01*
X415598Y205118D01*
X415598Y205906D01*
X415598Y205906D01*
X415568Y206059D01*
X415451Y206435D01*
X415420Y206791D01*
X415451Y207148D01*
X415568Y207524D01*
X415598Y207677D01*
X415598Y207677D01*
X415598Y208465D01*
X415568Y208618D01*
X415481Y208748D01*
X415188Y209350D01*
X415481Y209952D01*
X415568Y210083D01*
X415598Y210236D01*
Y211024D01*
X415568Y211177D01*
X415495Y211287D01*
X415469Y211339D01*
X415256Y211910D01*
X415469Y212480D01*
X415495Y212532D01*
X415568Y212642D01*
X415598Y212795D01*
Y213583D01*
X415568Y213736D01*
X415481Y213866D01*
X415087Y214260D01*
X414957Y214347D01*
X414803Y214378D01*
X407717D01*
X407563Y214347D01*
X407433Y214260D01*
X407039Y213866D01*
X406952Y213736D01*
X406921Y213583D01*
Y212821D01*
X406921Y212795D01*
X406879Y212686D01*
X406657Y212447D01*
X406120Y212091D01*
X406117Y212092D01*
X405821Y212182D01*
X405512Y212212D01*
X405203Y212182D01*
X404906Y212092D01*
X404633Y211946D01*
X404393Y211749D01*
X404196Y211509D01*
X404070Y211274D01*
X403922Y211235D01*
X403165D01*
X403016Y211274D01*
X402890Y211509D01*
X402694Y211749D01*
X402454Y211946D01*
X402180Y212092D01*
X401884Y212182D01*
X401575Y212212D01*
X401266Y212182D01*
X400969Y212092D01*
X400696Y211946D01*
X400617Y211881D01*
X400025Y212033D01*
X399617Y212302D01*
Y232283D01*
X399576Y232592D01*
X399457Y232879D01*
X399268Y233126D01*
X396925Y235468D01*
X396678Y235658D01*
X396391Y235777D01*
X396083Y235817D01*
X391740D01*
Y236004D01*
X391709Y236157D01*
X391622Y236288D01*
X391492Y236375D01*
X391339Y236405D01*
D02*
G37*
G36*
X364823Y209910D02*
X364814Y209909D01*
X364567D01*
X364413Y209879D01*
X364354Y209839D01*
X364142Y209775D01*
X363834Y209610D01*
X363564Y209389D01*
X363564Y209389D01*
X359033Y204857D01*
X358699Y204798D01*
X357961Y204811D01*
X357831Y204898D01*
X357677Y204929D01*
X335236D01*
X335083Y204898D01*
X334952Y204811D01*
X334865Y204681D01*
X334835Y204527D01*
Y198228D01*
X334865Y198075D01*
X334952Y197944D01*
X335083Y197857D01*
X335236Y197827D01*
X357677D01*
X357831Y197857D01*
X357961Y197944D01*
X358048Y198075D01*
X358079Y198228D01*
Y199599D01*
X358418Y199632D01*
X358752Y199733D01*
X359060Y199898D01*
X359330Y200119D01*
X363165Y203955D01*
X364165Y203541D01*
X364165Y201347D01*
X364158Y201340D01*
X364158Y201340D01*
X360800Y197982D01*
X360713Y197851D01*
X360653Y197707D01*
X360622Y197553D01*
X360622Y194654D01*
X360615Y194647D01*
X360615Y194647D01*
X358831Y192863D01*
X358744Y192733D01*
X358684Y192588D01*
X358654Y192435D01*
Y187880D01*
X358684Y187726D01*
X358709Y187666D01*
X358796Y187536D01*
X358926Y187449D01*
X358986Y187424D01*
X359140Y187394D01*
X382986D01*
X383140Y187424D01*
X383200Y187449D01*
X383330Y187536D01*
X383417Y187666D01*
X383442Y187726D01*
X383472Y187880D01*
Y192435D01*
X383442Y192589D01*
X383382Y192733D01*
X383295Y192864D01*
X381504Y194655D01*
X381504Y197553D01*
X381473Y197707D01*
X381413Y197851D01*
X381326Y197982D01*
X380599Y198709D01*
X378630Y200677D01*
X377903Y201405D01*
X377773Y201492D01*
X377628Y201552D01*
X377474Y201583D01*
X371215D01*
X370480Y202145D01*
Y204640D01*
X370450Y204793D01*
X370425Y204853D01*
X370338Y204983D01*
X370208Y205070D01*
X370148Y205095D01*
X369994Y205126D01*
X366711D01*
X366176Y206126D01*
X366326Y206350D01*
X367126D01*
X367135Y206351D01*
X369685D01*
X369839Y206381D01*
X369969Y206468D01*
X370056Y206598D01*
X370087Y206752D01*
Y209508D01*
X370056Y209662D01*
X369969Y209792D01*
X369839Y209879D01*
X369685Y209909D01*
X367135D01*
X367126Y209910D01*
X364823D01*
X364823Y209910D01*
D02*
G37*
G36*
X415354Y186622D02*
X415046Y186591D01*
X414749Y186501D01*
X414475Y186355D01*
X414235Y186158D01*
X414039Y185918D01*
X413892Y185645D01*
X413802Y185348D01*
X413772Y185039D01*
X413802Y184731D01*
X413892Y184434D01*
X414039Y184160D01*
X414235Y183920D01*
X414475Y183724D01*
X414711Y183598D01*
X414749Y183449D01*
Y182692D01*
X414711Y182544D01*
X414475Y182418D01*
X414235Y182221D01*
X414039Y181982D01*
X413892Y181708D01*
X413802Y181411D01*
X413772Y181102D01*
X413802Y180794D01*
X413892Y180497D01*
X414039Y180223D01*
X414235Y179983D01*
X414475Y179787D01*
X414711Y179661D01*
X414749Y179512D01*
Y178755D01*
X414711Y178607D01*
X414475Y178481D01*
X414235Y178284D01*
X414039Y178044D01*
X413892Y177771D01*
X413802Y177474D01*
X413772Y177165D01*
X413802Y176857D01*
X413892Y176560D01*
X414039Y176286D01*
X414235Y176046D01*
X414453Y175868D01*
Y160630D01*
X414484Y160397D01*
X414574Y160179D01*
X414717Y159993D01*
X417867Y156843D01*
X418053Y156700D01*
X418271Y156610D01*
X418504Y156579D01*
X419481D01*
Y155709D01*
X419511Y155555D01*
X419598Y155425D01*
X419728Y155338D01*
X419882Y155307D01*
X420358D01*
Y151779D01*
X419882D01*
X419728Y151749D01*
X419598Y151662D01*
X419511Y151532D01*
X419481Y151378D01*
Y147835D01*
X419511Y147681D01*
X419598Y147551D01*
X419728Y147464D01*
X419882Y147433D01*
X422638D01*
X422791Y147464D01*
X422922Y147551D01*
X423009Y147681D01*
X423039Y147835D01*
Y151378D01*
X423009Y151532D01*
X422922Y151662D01*
X422791Y151749D01*
X422638Y151779D01*
X422161D01*
Y155307D01*
X422638D01*
X422791Y155338D01*
X422922Y155425D01*
X423009Y155555D01*
X423039Y155709D01*
Y159252D01*
X423009Y159406D01*
X422922Y159536D01*
X422791Y159623D01*
X422638Y159653D01*
X419882D01*
X419728Y159623D01*
X419598Y159536D01*
X419511Y159406D01*
X419481Y159252D01*
Y159193D01*
X418480Y158779D01*
X416256Y161003D01*
Y175868D01*
X416473Y176046D01*
X416670Y176286D01*
X416816Y176560D01*
X416906Y176857D01*
X416937Y177165D01*
X416906Y177474D01*
X416816Y177771D01*
X416670Y178044D01*
X416473Y178284D01*
X416233Y178481D01*
X416107Y178549D01*
X416007Y179534D01*
X416380Y179907D01*
X416473Y179983D01*
X416548Y180075D01*
X416675Y180201D01*
X417737D01*
X420358Y177579D01*
Y175401D01*
X419882D01*
X419728Y175371D01*
X419598Y175284D01*
X419511Y175154D01*
X419481Y175000D01*
Y171457D01*
X419511Y171303D01*
X419598Y171173D01*
X419728Y171086D01*
X419882Y171055D01*
X420358D01*
Y167527D01*
X419882D01*
X419728Y167497D01*
X419598Y167410D01*
X419511Y167280D01*
X419481Y167126D01*
Y163583D01*
X419511Y163429D01*
X419598Y163299D01*
X419728Y163212D01*
X419882Y163181D01*
X422638D01*
X422791Y163212D01*
X422922Y163299D01*
X423009Y163429D01*
X423039Y163583D01*
Y167126D01*
X423009Y167280D01*
X422922Y167410D01*
X422791Y167497D01*
X422638Y167527D01*
X422161D01*
Y171055D01*
X422638D01*
X422791Y171086D01*
X422922Y171173D01*
X423009Y171303D01*
X423039Y171457D01*
Y175000D01*
X423009Y175154D01*
X422922Y175284D01*
X422791Y175371D01*
X422638Y175401D01*
X422161D01*
Y177953D01*
X422130Y178186D01*
X422041Y178403D01*
X421897Y178590D01*
X418748Y181740D01*
X418561Y181883D01*
X418434Y181936D01*
X418343Y181973D01*
X418110Y182004D01*
X416652D01*
X416473Y182221D01*
X416233Y182418D01*
X416107Y182486D01*
X416007Y183471D01*
X416380Y183844D01*
X416473Y183920D01*
X416548Y184012D01*
X416675Y184138D01*
X418131D01*
X425867Y176401D01*
X425830Y175937D01*
X425696Y175549D01*
X425544Y175311D01*
X425504Y175284D01*
X425417Y175154D01*
X425386Y175000D01*
Y171457D01*
X425417Y171303D01*
X425504Y171173D01*
X425634Y171086D01*
X425787Y171055D01*
X426264D01*
Y167527D01*
X425787D01*
X425634Y167497D01*
X425503Y167410D01*
X425417Y167280D01*
X425386Y167126D01*
Y163583D01*
X425417Y163429D01*
X425503Y163299D01*
X425634Y163212D01*
X425787Y163181D01*
X426264D01*
Y159653D01*
X425787D01*
X425634Y159623D01*
X425504Y159536D01*
X425417Y159406D01*
X425386Y159252D01*
Y155709D01*
X425417Y155555D01*
X425504Y155425D01*
X425634Y155338D01*
X425787Y155307D01*
X426264D01*
Y151779D01*
X425787D01*
X425634Y151749D01*
X425503Y151662D01*
X425417Y151532D01*
X425386Y151378D01*
Y147835D01*
X425417Y147681D01*
X425503Y147551D01*
X425634Y147464D01*
X425787Y147433D01*
X428543D01*
X428697Y147464D01*
X428827Y147551D01*
X428914Y147681D01*
X428945Y147835D01*
Y151378D01*
X428914Y151532D01*
X428827Y151662D01*
X428697Y151749D01*
X428543Y151779D01*
X428067D01*
Y155307D01*
X428543D01*
X428697Y155338D01*
X428827Y155425D01*
X428914Y155555D01*
X428945Y155709D01*
Y159252D01*
X428914Y159406D01*
X428827Y159536D01*
X428697Y159623D01*
X428543Y159653D01*
X428067D01*
Y163181D01*
X428543D01*
X428697Y163212D01*
X428827Y163299D01*
X428914Y163429D01*
X428945Y163583D01*
Y167126D01*
X428914Y167280D01*
X428827Y167410D01*
X428697Y167497D01*
X428543Y167527D01*
X428067D01*
Y171055D01*
X428543D01*
X428697Y171086D01*
X428827Y171173D01*
X428914Y171303D01*
X428945Y171457D01*
Y175000D01*
X428914Y175154D01*
X428827Y175284D01*
X428697Y175371D01*
X428543Y175401D01*
X428067D01*
Y176378D01*
X428036Y176611D01*
X427946Y176829D01*
X427803Y177015D01*
X419141Y185677D01*
X418955Y185820D01*
X418827Y185873D01*
X418737Y185910D01*
X418504Y185941D01*
X416652D01*
X416473Y186158D01*
X416233Y186355D01*
X415960Y186501D01*
X415663Y186591D01*
X415354Y186622D01*
D02*
G37*
G36*
X400984Y200598D02*
X398228D01*
X398075Y200568D01*
X397944Y200481D01*
X397857Y200350D01*
X397827Y200197D01*
Y199617D01*
X394488D01*
X394180Y199576D01*
X393893Y199457D01*
X393646Y199268D01*
X390890Y196512D01*
X390701Y196265D01*
X390582Y195978D01*
X390541Y195669D01*
Y192724D01*
X386614D01*
X386461Y192694D01*
X386330Y192607D01*
X386243Y192476D01*
X386213Y192323D01*
Y187992D01*
X386243Y187838D01*
X386330Y187708D01*
X386461Y187621D01*
X386614Y187591D01*
X396850D01*
X397004Y187621D01*
X397134Y187708D01*
X397221Y187838D01*
X397252Y187992D01*
Y192323D01*
X397221Y192476D01*
X397134Y192607D01*
X397004Y192694D01*
X396850Y192724D01*
X392924D01*
Y195176D01*
X394982Y197234D01*
X397827D01*
Y196653D01*
X397857Y196500D01*
X397944Y196370D01*
X398075Y196283D01*
X398228Y196252D01*
X400984D01*
X401138Y196283D01*
X401268Y196370D01*
X401355Y196500D01*
X401386Y196653D01*
Y200197D01*
X401355Y200350D01*
X401268Y200481D01*
X401138Y200568D01*
X400984Y200598D01*
D02*
G37*
G36*
X393307Y219910D02*
X388779D01*
X388771Y219909D01*
X386221D01*
X386067Y219879D01*
X385937Y219792D01*
X385850Y219661D01*
X385819Y219508D01*
Y216752D01*
X385850Y216598D01*
X385937Y216468D01*
X386067Y216381D01*
X386221Y216351D01*
X388771D01*
X388779Y216350D01*
X393307D01*
X393654Y216384D01*
X393988Y216485D01*
X394296Y216650D01*
X394566Y216871D01*
X394787Y217141D01*
X394952Y217449D01*
X395053Y217783D01*
X395087Y218130D01*
X395053Y218477D01*
X394952Y218811D01*
X394787Y219119D01*
X394566Y219389D01*
X394296Y219610D01*
X393988Y219775D01*
X393654Y219876D01*
X393307Y219910D01*
D02*
G37*
G36*
X413243Y220014D02*
X412955Y219976D01*
X412905Y219959D01*
X412854Y219949D01*
X412586Y219838D01*
X412542Y219809D01*
X412495Y219785D01*
X412265Y219609D01*
X412230Y219569D01*
X412191Y219534D01*
X412014Y219304D01*
X411991Y219257D01*
X411962Y219214D01*
X411850Y218945D01*
X411840Y218894D01*
X411823Y218844D01*
X411785Y218556D01*
X411787Y218530D01*
X411782Y218504D01*
X411787Y218478D01*
X411785Y218451D01*
X411823Y218164D01*
X411840Y218114D01*
X411850Y218063D01*
X411962Y217794D01*
X411991Y217751D01*
X412014Y217704D01*
X412191Y217473D01*
X412230Y217439D01*
X412265Y217399D01*
X412495Y217223D01*
X412542Y217199D01*
X412586Y217170D01*
X412854Y217059D01*
X412905Y217049D01*
X412955Y217032D01*
X413243Y216994D01*
X413295Y216998D01*
X413348Y216994D01*
X413635Y217032D01*
X413685Y217049D01*
X413737Y217059D01*
X414005Y217170D01*
X414048Y217199D01*
X414096Y217223D01*
X414326Y217399D01*
X414361Y217439D01*
X414400Y217473D01*
X414577Y217704D01*
X414600Y217751D01*
X414629Y217794D01*
X414740Y218063D01*
X414750Y218114D01*
X414767Y218164D01*
X414805Y218451D01*
X414803Y218478D01*
X414809Y218504D01*
X414803Y218530D01*
X414805Y218556D01*
X414767Y218844D01*
X414750Y218894D01*
X414740Y218945D01*
X414629Y219214D01*
X414600Y219257D01*
X414577Y219304D01*
X414400Y219534D01*
X414361Y219569D01*
X414326Y219609D01*
X414096Y219785D01*
X414048Y219809D01*
X414005Y219838D01*
X413737Y219949D01*
X413685Y219959D01*
X413635Y219976D01*
X413348Y220014D01*
X413295Y220010D01*
X413243Y220014D01*
D02*
G37*
G36*
X393307Y209910D02*
X388779D01*
X388771Y209909D01*
X386221D01*
X386067Y209879D01*
X385937Y209792D01*
X385850Y209662D01*
X385819Y209508D01*
Y206752D01*
X385850Y206598D01*
X385937Y206468D01*
X386067Y206381D01*
X386221Y206351D01*
X388771D01*
X388779Y206350D01*
X393307D01*
X393654Y206384D01*
X393988Y206485D01*
X394296Y206650D01*
X394566Y206871D01*
X394787Y207141D01*
X394952Y207449D01*
X395053Y207783D01*
X395087Y208130D01*
X395053Y208477D01*
X394952Y208811D01*
X394787Y209119D01*
X394566Y209389D01*
X394296Y209610D01*
X393988Y209775D01*
X393654Y209876D01*
X393307Y209910D01*
D02*
G37*
G36*
Y214910D02*
X388779D01*
X388771Y214909D01*
X386221D01*
X386067Y214879D01*
X385937Y214792D01*
X385850Y214662D01*
X385819Y214508D01*
Y211752D01*
X385850Y211598D01*
X385937Y211468D01*
X386067Y211381D01*
X386221Y211351D01*
X388771D01*
X388779Y211350D01*
X393307D01*
X393654Y211384D01*
X393988Y211485D01*
X394296Y211650D01*
X394566Y211871D01*
X394787Y212141D01*
X394952Y212449D01*
X395053Y212783D01*
X395087Y213130D01*
X395053Y213477D01*
X394952Y213811D01*
X394787Y214119D01*
X394566Y214389D01*
X394296Y214610D01*
X393988Y214775D01*
X393654Y214876D01*
X393307Y214910D01*
D02*
G37*
G36*
X371654Y251406D02*
X367126D01*
X367117Y251405D01*
X364567D01*
X364413Y251375D01*
X364283Y251288D01*
X364196Y251157D01*
X364165Y251004D01*
Y248248D01*
X364196Y248094D01*
X364283Y247964D01*
X364413Y247877D01*
X364567Y247847D01*
X367117D01*
X367126Y247846D01*
X371654D01*
X372001Y247880D01*
X372335Y247981D01*
X372643Y248146D01*
X372912Y248367D01*
X373134Y248637D01*
X373298Y248945D01*
X373399Y249279D01*
X373434Y249626D01*
X373399Y249973D01*
X373298Y250307D01*
X373134Y250615D01*
X372912Y250885D01*
X372643Y251106D01*
X372335Y251271D01*
X372001Y251372D01*
X371654Y251406D01*
D02*
G37*
G36*
X425894Y392798D02*
X420295D01*
X419793Y392759D01*
X419305Y392641D01*
X418840Y392449D01*
X418411Y392186D01*
X418029Y391860D01*
X417703Y391477D01*
X417440Y391049D01*
X417248Y390584D01*
X417130Y390096D01*
X417091Y389595D01*
X417130Y389093D01*
X417248Y388604D01*
X417440Y388140D01*
X417703Y387712D01*
X418029Y387329D01*
X418411Y387003D01*
X418840Y386740D01*
X419305Y386548D01*
X419793Y386430D01*
X420295Y386391D01*
X425894D01*
X426396Y386430D01*
X426885Y386548D01*
X427349Y386740D01*
X427777Y387003D01*
X428160Y387329D01*
X428486Y387712D01*
X428749Y388140D01*
X428941Y388604D01*
X429059Y389093D01*
X429098Y389595D01*
X429059Y390096D01*
X428941Y390584D01*
X428749Y391049D01*
X428486Y391477D01*
X428160Y391860D01*
X427777Y392186D01*
X427349Y392449D01*
X426885Y392641D01*
X426396Y392759D01*
X425894Y392798D01*
D02*
G37*
G36*
X335894Y402798D02*
X330294D01*
X329793Y402759D01*
X329305Y402641D01*
X328840Y402449D01*
X328412Y402186D01*
X328029Y401860D01*
X327703Y401477D01*
X327440Y401049D01*
X327248Y400585D01*
X327130Y400096D01*
X327091Y399594D01*
X327130Y399093D01*
X327248Y398604D01*
X327440Y398140D01*
X327703Y397711D01*
X328029Y397329D01*
X328412Y397003D01*
X328840Y396740D01*
X329305Y396548D01*
X329793Y396430D01*
X330294Y396391D01*
X335894D01*
X336396Y396430D01*
X336884Y396548D01*
X337349Y396740D01*
X337777Y397003D01*
X338160Y397329D01*
X338486Y397711D01*
X338749Y398140D01*
X338941Y398604D01*
X339059Y399093D01*
X339098Y399594D01*
X339059Y400096D01*
X338941Y400585D01*
X338749Y401049D01*
X338486Y401477D01*
X338160Y401860D01*
X337777Y402186D01*
X337349Y402449D01*
X336884Y402641D01*
X336396Y402759D01*
X335894Y402798D01*
D02*
G37*
G36*
Y392798D02*
X330294D01*
X329793Y392759D01*
X329305Y392641D01*
X328840Y392449D01*
X328412Y392186D01*
X328029Y391860D01*
X327703Y391477D01*
X327440Y391049D01*
X327248Y390584D01*
X327130Y390096D01*
X327091Y389595D01*
X327130Y389093D01*
X327248Y388604D01*
X327440Y388140D01*
X327703Y387712D01*
X328029Y387329D01*
X328412Y387003D01*
X328840Y386740D01*
X329305Y386548D01*
X329793Y386430D01*
X330294Y386391D01*
X335894D01*
X336396Y386430D01*
X336884Y386548D01*
X337349Y386740D01*
X337777Y387003D01*
X338160Y387329D01*
X338486Y387712D01*
X338749Y388140D01*
X338941Y388604D01*
X339059Y389093D01*
X339098Y389595D01*
X339059Y390096D01*
X338941Y390584D01*
X338749Y391049D01*
X338486Y391477D01*
X338160Y391860D01*
X337777Y392186D01*
X337349Y392449D01*
X336884Y392641D01*
X336396Y392759D01*
X335894Y392798D01*
D02*
G37*
G36*
Y382798D02*
X330294D01*
X329793Y382759D01*
X329305Y382641D01*
X328840Y382449D01*
X328412Y382186D01*
X328029Y381860D01*
X327703Y381477D01*
X327440Y381049D01*
X327248Y380585D01*
X327130Y380096D01*
X327091Y379594D01*
X327130Y379093D01*
X327248Y378605D01*
X327440Y378140D01*
X327703Y377712D01*
X328029Y377329D01*
X328412Y377003D01*
X328840Y376740D01*
X329305Y376548D01*
X329793Y376430D01*
X330294Y376391D01*
X335894D01*
X336396Y376430D01*
X336884Y376548D01*
X337349Y376740D01*
X337777Y377003D01*
X338160Y377329D01*
X338486Y377712D01*
X338749Y378140D01*
X338941Y378605D01*
X339059Y379093D01*
X339098Y379594D01*
X339059Y380096D01*
X338941Y380585D01*
X338749Y381049D01*
X338486Y381477D01*
X338160Y381860D01*
X337777Y382186D01*
X337349Y382449D01*
X336884Y382641D01*
X336396Y382759D01*
X335894Y382798D01*
D02*
G37*
G36*
X425894D02*
X420295D01*
X419793Y382759D01*
X419305Y382641D01*
X418840Y382449D01*
X418411Y382186D01*
X418029Y381860D01*
X417703Y381477D01*
X417440Y381049D01*
X417248Y380585D01*
X417130Y380096D01*
X417091Y379594D01*
X417130Y379093D01*
X417248Y378605D01*
X417440Y378140D01*
X417703Y377712D01*
X418029Y377329D01*
X418411Y377003D01*
X418840Y376740D01*
X419305Y376548D01*
X419793Y376430D01*
X420295Y376391D01*
X425894D01*
X426396Y376430D01*
X426885Y376548D01*
X427349Y376740D01*
X427777Y377003D01*
X428160Y377329D01*
X428486Y377712D01*
X428749Y378140D01*
X428941Y378605D01*
X429059Y379093D01*
X429098Y379594D01*
X429059Y380096D01*
X428941Y380585D01*
X428749Y381049D01*
X428486Y381477D01*
X428160Y381860D01*
X427777Y382186D01*
X427349Y382449D01*
X426885Y382641D01*
X426396Y382759D01*
X425894Y382798D01*
D02*
G37*
G36*
X335894Y432798D02*
X330294D01*
X329793Y432759D01*
X329305Y432641D01*
X328840Y432449D01*
X328412Y432186D01*
X328029Y431860D01*
X327703Y431477D01*
X327440Y431049D01*
X327248Y430584D01*
X327130Y430096D01*
X327091Y429595D01*
X327130Y429093D01*
X327248Y428605D01*
X327440Y428140D01*
X327703Y427711D01*
X328029Y427329D01*
X328412Y427003D01*
X328840Y426740D01*
X329305Y426548D01*
X329793Y426430D01*
X330294Y426391D01*
X335894D01*
X336396Y426430D01*
X336884Y426548D01*
X337349Y426740D01*
X337777Y427003D01*
X338160Y427329D01*
X338486Y427711D01*
X338749Y428140D01*
X338941Y428605D01*
X339059Y429093D01*
X339098Y429595D01*
X339059Y430096D01*
X338941Y430584D01*
X338749Y431049D01*
X338486Y431477D01*
X338160Y431860D01*
X337777Y432186D01*
X337349Y432449D01*
X336884Y432641D01*
X336396Y432759D01*
X335894Y432798D01*
D02*
G37*
G36*
X425894D02*
X420295D01*
X419793Y432759D01*
X419305Y432641D01*
X418840Y432449D01*
X418411Y432186D01*
X418029Y431860D01*
X417703Y431477D01*
X417640Y431375D01*
X414240D01*
X414240Y431375D01*
X413893Y431341D01*
X413559Y431239D01*
X413251Y431075D01*
X412981Y430853D01*
X412981Y430853D01*
X408190Y426062D01*
X407969Y425792D01*
X407804Y425484D01*
X407703Y425150D01*
X407669Y424803D01*
X407669Y424803D01*
Y268683D01*
X407556Y268636D01*
X407416Y268529D01*
X407309Y268389D01*
X407242Y268227D01*
X407219Y268052D01*
Y263444D01*
X407242Y263269D01*
X407273Y263194D01*
Y256072D01*
X407231Y254675D01*
X407096Y253209D01*
X406871Y251756D01*
X406556Y250318D01*
X406151Y248893D01*
X405656Y247482D01*
X405071Y246084D01*
X404395Y244700D01*
X403628Y243329D01*
X402833Y242070D01*
X402776Y241995D01*
X402742Y241914D01*
X402734Y241901D01*
X402731Y241886D01*
X402697Y241805D01*
X402670Y241601D01*
Y237217D01*
X402697Y237014D01*
X402776Y236824D01*
X402901Y236661D01*
X403064Y236536D01*
X403254Y236457D01*
X403458Y236430D01*
X415440D01*
X415644Y236457D01*
X415834Y236536D01*
X415997Y236661D01*
X416122Y236824D01*
X416200Y237014D01*
X416227Y237217D01*
Y241601D01*
X416200Y241805D01*
X416167Y241886D01*
X416164Y241901D01*
X416155Y241914D01*
X416122Y241995D01*
X416064Y242070D01*
X415269Y243329D01*
X414503Y244700D01*
X413827Y246084D01*
X413241Y247482D01*
X412746Y248893D01*
X412342Y250318D01*
X412027Y251756D01*
X411802Y253209D01*
X411667Y254675D01*
X411625Y256072D01*
Y263194D01*
X411656Y263269D01*
X411679Y263444D01*
Y268052D01*
X411656Y268227D01*
X411589Y268389D01*
X411482Y268529D01*
X411342Y268636D01*
X411229Y268683D01*
Y424066D01*
X414978Y427814D01*
X417640D01*
X417703Y427711D01*
X418029Y427329D01*
X418411Y427003D01*
X418840Y426740D01*
X419305Y426548D01*
X419793Y426430D01*
X420295Y426391D01*
X425894D01*
X426396Y426430D01*
X426885Y426548D01*
X427349Y426740D01*
X427777Y427003D01*
X428160Y427329D01*
X428486Y427711D01*
X428749Y428140D01*
X428941Y428605D01*
X429059Y429093D01*
X429098Y429595D01*
X429059Y430096D01*
X428941Y430584D01*
X428749Y431049D01*
X428486Y431477D01*
X428160Y431860D01*
X427777Y432186D01*
X427349Y432449D01*
X426885Y432641D01*
X426396Y432759D01*
X425894Y432798D01*
D02*
G37*
G36*
Y422798D02*
X420295D01*
X419793Y422759D01*
X419305Y422641D01*
X418840Y422449D01*
X418411Y422186D01*
X418029Y421860D01*
X417703Y421478D01*
X417440Y421049D01*
X417248Y420584D01*
X417130Y420096D01*
X417091Y419594D01*
X417130Y419093D01*
X417248Y418605D01*
X417440Y418140D01*
X417703Y417711D01*
X418029Y417329D01*
X418411Y417003D01*
X418840Y416740D01*
X419305Y416548D01*
X419793Y416430D01*
X420295Y416391D01*
X425894D01*
X426396Y416430D01*
X426885Y416548D01*
X427349Y416740D01*
X427777Y417003D01*
X428160Y417329D01*
X428486Y417711D01*
X428749Y418140D01*
X428941Y418605D01*
X429059Y419093D01*
X429098Y419594D01*
X429059Y420096D01*
X428941Y420584D01*
X428749Y421049D01*
X428486Y421478D01*
X428160Y421860D01*
X427777Y422186D01*
X427349Y422449D01*
X426885Y422641D01*
X426396Y422759D01*
X425894Y422798D01*
D02*
G37*
G36*
X335894Y412798D02*
X330294D01*
X329793Y412759D01*
X329305Y412641D01*
X328840Y412449D01*
X328412Y412186D01*
X328029Y411860D01*
X327703Y411478D01*
X327440Y411049D01*
X327248Y410584D01*
X327130Y410096D01*
X327091Y409594D01*
X327130Y409093D01*
X327248Y408604D01*
X327440Y408140D01*
X327703Y407712D01*
X328029Y407329D01*
X328412Y407003D01*
X328840Y406740D01*
X329305Y406548D01*
X329793Y406430D01*
X330294Y406391D01*
X335894D01*
X336396Y406430D01*
X336884Y406548D01*
X337349Y406740D01*
X337777Y407003D01*
X338160Y407329D01*
X338486Y407712D01*
X338749Y408140D01*
X338941Y408604D01*
X339059Y409093D01*
X339098Y409594D01*
X339059Y410096D01*
X338941Y410584D01*
X338749Y411049D01*
X338486Y411478D01*
X338160Y411860D01*
X337777Y412186D01*
X337349Y412449D01*
X336884Y412641D01*
X336396Y412759D01*
X335894Y412798D01*
D02*
G37*
G36*
X425894D02*
X420295D01*
X419793Y412759D01*
X419305Y412641D01*
X418840Y412449D01*
X418411Y412186D01*
X418029Y411860D01*
X417703Y411478D01*
X417440Y411049D01*
X417248Y410584D01*
X417130Y410096D01*
X417091Y409594D01*
X417130Y409093D01*
X417248Y408604D01*
X417440Y408140D01*
X417703Y407712D01*
X418029Y407329D01*
X418411Y407003D01*
X418840Y406740D01*
X419305Y406548D01*
X419793Y406430D01*
X420295Y406391D01*
X425894D01*
X426396Y406430D01*
X426885Y406548D01*
X427349Y406740D01*
X427777Y407003D01*
X428160Y407329D01*
X428486Y407712D01*
X428749Y408140D01*
X428941Y408604D01*
X429059Y409093D01*
X429098Y409594D01*
X429059Y410096D01*
X428941Y410584D01*
X428749Y411049D01*
X428486Y411478D01*
X428160Y411860D01*
X427777Y412186D01*
X427349Y412449D01*
X426885Y412641D01*
X426396Y412759D01*
X425894Y412798D01*
D02*
G37*
G36*
X332677Y286230D02*
X332111Y286193D01*
X331554Y286082D01*
X331016Y285899D01*
X330507Y285648D01*
X330035Y285333D01*
X329608Y284959D01*
X329234Y284532D01*
X328919Y284060D01*
X328667Y283551D01*
X328485Y283013D01*
X328374Y282456D01*
X328337Y281890D01*
X328374Y281323D01*
X328485Y280767D01*
X328667Y280229D01*
X328919Y279720D01*
X329234Y279248D01*
X329608Y278821D01*
X330035Y278447D01*
X330507Y278131D01*
X331016Y277880D01*
X331554Y277698D01*
X332111Y277587D01*
X332677Y277550D01*
X333244Y277587D01*
X333800Y277698D01*
X334338Y277880D01*
X334847Y278131D01*
X335319Y278447D01*
X335746Y278821D01*
X336120Y279248D01*
X336436Y279720D01*
X336687Y280229D01*
X336869Y280767D01*
X336980Y281323D01*
X337017Y281890D01*
X336980Y282456D01*
X336869Y283013D01*
X336687Y283551D01*
X336436Y284060D01*
X336120Y284532D01*
X335746Y284959D01*
X335319Y285333D01*
X334847Y285648D01*
X334338Y285899D01*
X333800Y286082D01*
X333244Y286193D01*
X332677Y286230D01*
D02*
G37*
G36*
X395276D02*
X394709Y286193D01*
X394152Y286082D01*
X393615Y285899D01*
X393106Y285648D01*
X392634Y285333D01*
X392207Y284959D01*
X391832Y284532D01*
X391517Y284060D01*
X391266Y283551D01*
X391084Y283013D01*
X390973Y282456D01*
X390936Y281890D01*
X390973Y281323D01*
X391084Y280767D01*
X391266Y280229D01*
X391517Y279720D01*
X391832Y279248D01*
X392207Y278821D01*
X392634Y278447D01*
X393106Y278131D01*
X393615Y277880D01*
X394152Y277698D01*
X394709Y277587D01*
X395276Y277550D01*
X395842Y277587D01*
X396399Y277698D01*
X396936Y277880D01*
X397446Y278131D01*
X397918Y278447D01*
X398344Y278821D01*
X398719Y279248D01*
X399034Y279720D01*
X399285Y280229D01*
X399468Y280767D01*
X399578Y281323D01*
X399616Y281890D01*
X399578Y282456D01*
X399468Y283013D01*
X399285Y283551D01*
X399034Y284060D01*
X398719Y284532D01*
X398344Y284959D01*
X397918Y285333D01*
X397446Y285648D01*
X396936Y285899D01*
X396399Y286082D01*
X395842Y286193D01*
X395276Y286230D01*
D02*
G37*
G36*
X331929Y256904D02*
X331890Y256900D01*
X331890D01*
X331850Y256904D01*
X331503Y256870D01*
X331465Y256858D01*
X331465Y256858D01*
X331426Y256855D01*
X331092Y256753D01*
X331057Y256735D01*
X331019Y256723D01*
X330712Y256559D01*
X330681Y256534D01*
X330681Y256534D01*
X330681Y256534D01*
X330646Y256515D01*
X330376Y256294D01*
X330351Y256263D01*
X330321Y256238D01*
X330099Y255968D01*
X330081Y255933D01*
X330081Y255933D01*
X330081Y255933D01*
X330055Y255903D01*
X329891Y255595D01*
X329880Y255557D01*
X329861Y255522D01*
X329760Y255188D01*
X329756Y255149D01*
X329756Y255149D01*
X329744Y255111D01*
X329710Y254764D01*
X329712Y254744D01*
X329708Y254724D01*
X329712Y254705D01*
X329710Y254685D01*
X329744Y254338D01*
X329756Y254300D01*
X329756Y254300D01*
X329760Y254261D01*
X329861Y253927D01*
X329880Y253892D01*
X329891Y253854D01*
X330055Y253546D01*
X330081Y253516D01*
X330081Y253516D01*
X330081Y253516D01*
X330099Y253481D01*
X330321Y253211D01*
X330351Y253186D01*
X330376Y253155D01*
X330646Y252934D01*
X330681Y252915D01*
X330681Y252915D01*
X330681Y252915D01*
X330712Y252890D01*
X331019Y252726D01*
X331057Y252714D01*
X331092Y252696D01*
X331426Y252594D01*
X331465Y252590D01*
X331465Y252590D01*
X331503Y252579D01*
X331850Y252545D01*
X331890Y252549D01*
X331890D01*
X331929Y252545D01*
X332276Y252579D01*
X332314Y252590D01*
X332314Y252590D01*
X332354Y252594D01*
X332687Y252696D01*
X332722Y252714D01*
X332760Y252726D01*
X333068Y252890D01*
X333099Y252915D01*
X333099Y252915D01*
X333099Y252915D01*
X333133Y252934D01*
X333403Y253155D01*
X333428Y253186D01*
X333459Y253211D01*
X333680Y253481D01*
X333699Y253516D01*
X333699Y253516D01*
X333699Y253516D01*
X333724Y253546D01*
X333889Y253854D01*
X333900Y253892D01*
X333919Y253927D01*
X334020Y254261D01*
X334024Y254300D01*
X334024Y254300D01*
X334035Y254338D01*
X334069Y254685D01*
X334068Y254705D01*
X334071Y254724D01*
X334068Y254744D01*
X334069Y254764D01*
X334035Y255111D01*
X334024Y255149D01*
X334024Y255149D01*
X334020Y255188D01*
X333919Y255522D01*
X333900Y255557D01*
X333889Y255595D01*
X333724Y255903D01*
X333699Y255933D01*
X333699Y255933D01*
X333699Y255933D01*
X333680Y255968D01*
X333459Y256238D01*
X333428Y256263D01*
X333403Y256294D01*
X333133Y256515D01*
X333099Y256534D01*
X333099Y256534D01*
X333099Y256534D01*
X333068Y256559D01*
X332760Y256723D01*
X332722Y256735D01*
X332687Y256753D01*
X332354Y256855D01*
X332314Y256858D01*
X332314Y256858D01*
X332276Y256870D01*
X331929Y256904D01*
D02*
G37*
G36*
X401989Y268726D02*
X398877D01*
X398703Y268703D01*
X398540Y268636D01*
X398400Y268529D01*
X398293Y268389D01*
X398226Y268227D01*
X398203Y268052D01*
Y267528D01*
X362992D01*
X362992Y267528D01*
X362645Y267494D01*
X362311Y267393D01*
X362003Y267228D01*
X361733Y267007D01*
X354184Y259457D01*
X339961D01*
X339952Y259456D01*
X337795D01*
X337642Y259426D01*
X337511Y259339D01*
X337424Y259209D01*
X337394Y259055D01*
Y256299D01*
X337424Y256146D01*
X337511Y256015D01*
X337642Y255928D01*
X337795Y255898D01*
X339952D01*
X339961Y255897D01*
X354921D01*
X354921Y255897D01*
X355269Y255931D01*
X355603Y256032D01*
X355910Y256197D01*
X356180Y256418D01*
X363730Y263968D01*
X398203D01*
Y263444D01*
X398226Y263269D01*
X398293Y263107D01*
X398400Y262967D01*
X398540Y262860D01*
X398703Y262793D01*
X398877Y262770D01*
X401989D01*
X402164Y262793D01*
X402326Y262860D01*
X402466Y262967D01*
X402573Y263107D01*
X402640Y263269D01*
X402663Y263444D01*
Y268052D01*
X402640Y268227D01*
X402573Y268389D01*
X402466Y268529D01*
X402326Y268636D01*
X402164Y268703D01*
X401989Y268726D01*
D02*
G37*
G36*
X335894Y362798D02*
X330294D01*
X329793Y362759D01*
X329305Y362641D01*
X328840Y362449D01*
X328412Y362186D01*
X328029Y361860D01*
X327703Y361477D01*
X327440Y361049D01*
X327248Y360584D01*
X327130Y360096D01*
X327091Y359594D01*
X327130Y359093D01*
X327248Y358605D01*
X327440Y358140D01*
X327703Y357712D01*
X328029Y357329D01*
X328412Y357003D01*
X328840Y356740D01*
X329305Y356548D01*
X329793Y356430D01*
X330294Y356391D01*
X335894D01*
X336396Y356430D01*
X336884Y356548D01*
X337349Y356740D01*
X337777Y357003D01*
X338160Y357329D01*
X338486Y357712D01*
X338749Y358140D01*
X338941Y358605D01*
X339059Y359093D01*
X339098Y359594D01*
X339059Y360096D01*
X338941Y360584D01*
X338749Y361049D01*
X338486Y361477D01*
X338160Y361860D01*
X337777Y362186D01*
X337349Y362449D01*
X336884Y362641D01*
X336396Y362759D01*
X335894Y362798D01*
D02*
G37*
G36*
Y372798D02*
X330294D01*
X329793Y372759D01*
X329305Y372641D01*
X328840Y372449D01*
X328412Y372186D01*
X328029Y371860D01*
X327703Y371478D01*
X327440Y371049D01*
X327248Y370585D01*
X327130Y370096D01*
X327091Y369595D01*
X327130Y369093D01*
X327248Y368604D01*
X327440Y368140D01*
X327703Y367711D01*
X328029Y367329D01*
X328412Y367003D01*
X328840Y366740D01*
X329305Y366548D01*
X329793Y366430D01*
X330294Y366391D01*
X335894D01*
X336396Y366430D01*
X336884Y366548D01*
X337349Y366740D01*
X337777Y367003D01*
X338160Y367329D01*
X338486Y367711D01*
X338749Y368140D01*
X338941Y368604D01*
X339059Y369093D01*
X339098Y369595D01*
X339059Y370096D01*
X338941Y370585D01*
X338749Y371049D01*
X338486Y371478D01*
X338160Y371860D01*
X337777Y372186D01*
X337349Y372449D01*
X336884Y372641D01*
X336396Y372759D01*
X335894Y372798D01*
D02*
G37*
G36*
X425894D02*
X420295D01*
X419793Y372759D01*
X419305Y372641D01*
X418840Y372449D01*
X418411Y372186D01*
X418029Y371860D01*
X417703Y371478D01*
X417440Y371049D01*
X417248Y370585D01*
X417130Y370096D01*
X417091Y369595D01*
X417130Y369093D01*
X417248Y368604D01*
X417440Y368140D01*
X417703Y367711D01*
X418029Y367329D01*
X418411Y367003D01*
X418840Y366740D01*
X419305Y366548D01*
X419793Y366430D01*
X420295Y366391D01*
X425894D01*
X426396Y366430D01*
X426885Y366548D01*
X427349Y366740D01*
X427777Y367003D01*
X428160Y367329D01*
X428486Y367711D01*
X428749Y368140D01*
X428941Y368604D01*
X429059Y369093D01*
X429098Y369595D01*
X429059Y370096D01*
X428941Y370585D01*
X428749Y371049D01*
X428486Y371478D01*
X428160Y371860D01*
X427777Y372186D01*
X427349Y372449D01*
X426885Y372641D01*
X426396Y372759D01*
X425894Y372798D01*
D02*
G37*
%LPD*%
G36*
X344685Y188779D02*
X344161Y188752D01*
X343693Y188669D01*
X343280Y188531D01*
X342921Y188339D01*
X342618Y188091D01*
X342370Y187787D01*
X342177Y187429D01*
X342039Y187016D01*
X341957Y186547D01*
X341929Y186024D01*
X339173D01*
X339146Y186547D01*
X339063Y187016D01*
X338925Y187429D01*
X338732Y187787D01*
X338484Y188091D01*
X338181Y188339D01*
X337823Y188531D01*
X337409Y188669D01*
X336941Y188752D01*
X336417Y188779D01*
X340551Y191535D01*
X344685Y188779D01*
D02*
G37*
G36*
X376832Y228287D02*
X377499Y227619D01*
X377559Y227474D01*
Y223707D01*
X377499Y223562D01*
X376832Y222895D01*
X376687Y222835D01*
X372526D01*
X372381Y222895D01*
X371713Y223562D01*
X371654Y223707D01*
Y227474D01*
X371713Y227619D01*
X371713Y227619D01*
X372381Y228287D01*
X372526Y228346D01*
X376687D01*
X376832Y228287D01*
D02*
G37*
G36*
X345336Y249940D02*
X346003Y249272D01*
X346063Y249128D01*
Y236699D01*
X346003Y236554D01*
X345336Y235887D01*
X345191Y235827D01*
X339848D01*
X339704Y235887D01*
X337133Y238458D01*
X337133Y238458D01*
X337008Y238583D01*
X335518D01*
X335373Y238643D01*
X335118Y238898D01*
X334705Y239310D01*
X334646Y239455D01*
X334646Y241544D01*
Y241544D01*
X334646Y246372D01*
X334706Y246517D01*
X335373Y247184D01*
X335518Y247244D01*
X337008D01*
X337133Y247369D01*
X339704Y249940D01*
X339848Y250000D01*
X345191D01*
X345336Y249940D01*
D02*
G37*
G36*
X399228Y207575D02*
X399276Y207307D01*
X399354Y207071D01*
X399465Y206866D01*
X399606Y206693D01*
X399780Y206551D01*
X399984Y206441D01*
X400220Y206362D01*
X400488Y206315D01*
X400787Y206299D01*
Y206299D01*
D01*
X400326Y204724D01*
X400027Y204714D01*
X400016Y204713D01*
X399986Y204710D01*
X399715Y204680D01*
X399423Y204624D01*
X399140Y204546D01*
X398867Y204446D01*
X398602Y204324D01*
X398347Y204179D01*
X398102Y204012D01*
X397865Y203822D01*
X397638Y203611D01*
X396524Y204724D01*
Y204724D01*
D01*
X396736Y204952D01*
X396925Y205188D01*
X397092Y205434D01*
X397237Y205689D01*
X397359Y205953D01*
X397460Y206227D01*
X397538Y206509D01*
X397593Y206801D01*
X397627Y207102D01*
X397638Y207413D01*
X399213Y207874D01*
X399228Y207575D01*
D02*
G37*
G36*
X407874Y204724D02*
X407575Y204709D01*
X407307Y204661D01*
X407071Y204583D01*
X406866Y204472D01*
X406693Y204331D01*
X406551Y204157D01*
X406441Y203953D01*
X406362Y203717D01*
X406315Y203449D01*
X406299Y203150D01*
X404724D01*
X404709Y203449D01*
X404661Y203717D01*
X404583Y203953D01*
X404472Y204157D01*
X404331Y204331D01*
X404157Y204472D01*
X403953Y204583D01*
X403717Y204661D01*
X403449Y204709D01*
X403150Y204724D01*
X405512Y206299D01*
X407874Y204724D01*
D02*
G37*
G36*
X370054Y204700D02*
X370079Y204640D01*
Y202145D01*
X370079Y202145D01*
X370079Y202145D01*
Y201969D01*
X370866Y201181D01*
X377474D01*
X377619Y201121D01*
X378346Y200394D01*
X378346Y200394D01*
D01*
X378346Y200394D01*
X380315Y198425D01*
X381042Y197698D01*
X381102Y197553D01*
X381102Y194488D01*
X381227Y194363D01*
X383011Y192580D01*
X383071Y192435D01*
Y187880D01*
X383046Y187820D01*
X382986Y187795D01*
X359140D01*
X359080Y187820D01*
X359055Y187880D01*
Y192435D01*
X359115Y192580D01*
X359449Y192913D01*
X359449Y192913D01*
X360204Y193668D01*
X360899Y194363D01*
X360899Y194363D01*
X361024Y194488D01*
Y194665D01*
D01*
X361024Y197553D01*
X361084Y197698D01*
X364442Y201056D01*
X364442Y201056D01*
X364567Y201181D01*
X364567Y202056D01*
X364567Y204186D01*
Y204186D01*
Y204724D01*
X369994D01*
X370054Y204700D01*
D02*
G37*
G36*
X411266Y254651D02*
X411403Y253159D01*
X411632Y251682D01*
X411952Y250220D01*
X412364Y248772D01*
X412867Y247338D01*
X413461Y245919D01*
X414147Y244514D01*
X414924Y243124D01*
X415793Y241748D01*
X403105D01*
X403973Y243124D01*
X404751Y244514D01*
X405437Y245919D01*
X406031Y247338D01*
X406534Y248772D01*
X406946Y250220D01*
X407266Y251682D01*
X407494Y253159D01*
X407631Y254651D01*
X407677Y256157D01*
X411221D01*
X411266Y254651D01*
D02*
G37*
D10*
X421260Y149606D02*
D03*
X427165D02*
D03*
X427165Y157480D02*
D03*
X421260D02*
D03*
X427165Y173228D02*
D03*
X421260D02*
D03*
X421260Y165354D02*
D03*
X427165D02*
D03*
X405512Y198425D02*
D03*
X399606D02*
D03*
X367126Y225591D02*
D03*
X373031D02*
D03*
D11*
X372638Y257874D02*
D03*
X383268D02*
D03*
D12*
X391732Y179528D02*
D03*
Y190157D02*
D03*
X405512D02*
D03*
Y179528D02*
D03*
X350394Y190157D02*
D03*
Y179528D02*
D03*
X364173Y190157D02*
D03*
Y179528D02*
D03*
X377953Y190157D02*
D03*
Y179528D02*
D03*
D13*
X339961Y257677D02*
D03*
Y245866D02*
D03*
Y239961D02*
D03*
D14*
X336417Y263583D02*
D03*
X327362D02*
D03*
X336417Y234055D02*
D03*
X327362D02*
D03*
D15*
X388779Y218130D02*
D03*
Y213130D02*
D03*
Y203130D02*
D03*
Y208130D02*
D03*
X367126Y218130D02*
D03*
Y213130D02*
D03*
Y203130D02*
D03*
Y208130D02*
D03*
X388779Y244626D02*
D03*
Y249626D02*
D03*
Y239626D02*
D03*
Y234626D02*
D03*
X367126Y244626D02*
D03*
Y249626D02*
D03*
Y239626D02*
D03*
Y234626D02*
D03*
D16*
X377953Y210630D02*
D03*
D17*
X346457Y201378D02*
D03*
Y219882D02*
D03*
D18*
X411260Y205512D02*
D03*
Y208071D02*
D03*
Y210630D02*
D03*
Y213189D02*
D03*
Y215748D02*
D03*
D19*
X421260Y224130D02*
D03*
Y197130D02*
D03*
D20*
Y210630D02*
D03*
D21*
X418465Y265748D02*
D03*
X409449D02*
D03*
X400433D02*
D03*
D22*
X409449Y239409D02*
D03*
D23*
X414240Y429595D02*
X423095D01*
X409449Y424803D02*
X414240Y429595D01*
X409449Y265748D02*
Y424803D01*
X362992Y265748D02*
X400433D01*
X354921Y257677D02*
X362992Y265748D01*
X339961Y257677D02*
X354921D01*
X388779Y218130D02*
X393307D01*
X388779Y213130D02*
X393307D01*
X388779Y208130D02*
X393307D01*
X383268Y251772D02*
Y257874D01*
Y251772D02*
X385413Y249626D01*
X388779D01*
X367126Y244626D02*
X371654D01*
X367126Y249626D02*
X371654D01*
X340551Y161417D02*
Y190157D01*
X350394D01*
X340551Y161417D02*
X348228Y153740D01*
X332874Y219882D02*
X346457D01*
X364823Y208130D02*
X367126D01*
X358071Y201378D02*
X364823Y208130D01*
X346457Y201378D02*
X358071D01*
X364823Y213130D02*
X367126D01*
X358071Y219882D02*
X364823Y213130D01*
X346457Y219882D02*
X358071D01*
X348228Y153740D02*
X377953D01*
X333858Y190157D02*
X340551D01*
X329528Y194488D02*
X333858Y190157D01*
X329528Y194488D02*
Y216535D01*
X332874Y219882D01*
D24*
X409449Y239409D02*
Y265748D01*
D25*
X427165Y149606D02*
Y165354D01*
Y173228D01*
X427165Y173228D01*
X418504Y157480D02*
X421260D01*
X415354Y160630D02*
X418504Y157480D01*
X415354Y160630D02*
Y177165D01*
X421260Y157480D02*
X421260Y157480D01*
X421260Y149606D02*
Y157480D01*
X427165Y173228D02*
Y176378D01*
X418504Y185039D02*
X427165Y176378D01*
X415354Y185039D02*
X418504D01*
X415354Y181102D02*
X418110D01*
X421260Y177953D01*
Y173228D02*
Y177953D01*
X421260Y173228D02*
X421260Y173228D01*
X421260Y165354D02*
Y173228D01*
X410964Y205217D02*
X411260Y205512D01*
D26*
X388779Y239626D02*
X395669D01*
X388779Y244626D02*
X400000D01*
X398425Y205512D02*
Y232283D01*
X396083Y234626D02*
X398425Y232283D01*
X388779Y234626D02*
X396083D01*
X396043Y203130D02*
X398425Y205512D01*
X388779Y203130D02*
X396043D01*
X398425Y205512D02*
Y205512D01*
X405512D01*
X401575Y210630D02*
X404134Y208071D01*
X411260D01*
X405512Y210630D02*
X411260D01*
X405512Y205512D02*
X411260D01*
X405512Y198425D02*
Y205512D01*
Y190157D02*
Y198425D01*
X394488D02*
X399606D01*
X391732Y195669D02*
X394488Y198425D01*
X391732Y190157D02*
Y195669D01*
D27*
X367126Y218130D02*
Y225591D01*
D28*
X331890Y254724D02*
D03*
Y242913D02*
D03*
D29*
X332677Y281890D02*
D03*
X360677D02*
D03*
X395276D02*
D03*
X423276D02*
D03*
D30*
X377953Y153740D02*
D03*
Y440748D02*
D03*
D31*
X423095Y429595D02*
D03*
Y419594D02*
D03*
Y409594D02*
D03*
Y399594D02*
D03*
Y389595D02*
D03*
Y379594D02*
D03*
Y369595D02*
D03*
Y359594D02*
D03*
X333095D02*
D03*
Y369595D02*
D03*
Y379594D02*
D03*
Y389595D02*
D03*
Y399594D02*
D03*
Y409594D02*
D03*
Y419594D02*
D03*
Y429595D02*
D03*
D32*
X413295Y218504D02*
D03*
Y202756D02*
D03*
D33*
X393307Y208130D02*
D03*
Y213130D02*
D03*
Y218130D02*
D03*
X415354Y177165D02*
D03*
Y181102D02*
D03*
Y185039D02*
D03*
X400000Y244626D02*
D03*
X395669Y239626D02*
D03*
X371654Y244626D02*
D03*
Y249626D02*
D03*
X405512Y210630D02*
D03*
X401575D02*
D03*
X356299Y230315D02*
D03*
X353937D02*
D03*
X351575D02*
D03*
X349213D02*
D03*
X353937Y227953D02*
D03*
X351575D02*
D03*
X349213D02*
D03*
X346850D02*
D03*
X379528Y210630D02*
D03*
X376378D02*
D03*
X377953Y208268D02*
D03*
Y205512D02*
D03*
Y212992D02*
D03*
Y215748D02*
D03*
X381102Y212992D02*
D03*
Y208268D02*
D03*
X374803D02*
D03*
Y212992D02*
D03*
X381102Y215748D02*
D03*
X374803D02*
D03*
X381102Y205512D02*
D03*
X374803D02*
D03*
X327953Y225984D02*
D03*
X330315Y228346D02*
D03*
X332677Y225984D02*
D03*
X327953Y228346D02*
D03*
X332677D02*
D03*
X426772Y259055D02*
D03*
Y263779D02*
D03*
Y268504D02*
D03*
X421260Y203150D02*
D03*
Y205512D02*
D03*
Y218110D02*
D03*
Y215748D02*
D03*
X365354Y199606D02*
D03*
Y194095D02*
D03*
X368110D02*
D03*
X365354Y196850D02*
D03*
X362598D02*
D03*
Y194095D02*
D03*
X368110Y196850D02*
D03*
Y199606D02*
D03*
X336221Y240158D02*
D03*
Y245669D02*
D03*
Y242913D02*
D03*
X341732Y248425D02*
D03*
X344488D02*
D03*
Y245669D02*
D03*
Y242913D02*
D03*
Y240158D02*
D03*
X341732Y237402D02*
D03*
X344488D02*
D03*
X341732Y242913D02*
D03*
X338976D02*
D03*
X374016Y196850D02*
D03*
Y194095D02*
D03*
X376772D02*
D03*
Y196850D02*
D03*
X374016Y199606D02*
D03*
X379528Y196850D02*
D03*
Y194095D02*
D03*
X376772Y199606D02*
D03*
X375984Y224410D02*
D03*
Y226772D02*
D03*
X375197Y290158D02*
D03*
X377953Y287402D02*
D03*
X380709D02*
D03*
X377953Y290158D02*
D03*
X375197Y284646D02*
D03*
Y287402D02*
D03*
X380709Y290158D02*
D03*
X377953Y284646D02*
D03*
X404331Y401968D02*
D03*
X421654Y350394D02*
D03*
X424016D02*
D03*
Y348031D02*
D03*
X421654D02*
D03*
Y345669D02*
D03*
X424016D02*
D03*
X421654Y343307D02*
D03*
X424016D02*
D03*
X421654Y340945D02*
D03*
X424016D02*
D03*
X421654Y338583D02*
D03*
X424016D02*
D03*
X426772Y266142D02*
D03*
Y261417D02*
D03*
Y256693D02*
D03*
Y270866D02*
D03*
X330315Y225984D02*
D03*
X356299Y227953D02*
D03*
X346850Y230315D02*
D03*
X404331Y390158D02*
D03*
X401968D02*
D03*
X404331Y392520D02*
D03*
X401968D02*
D03*
X404331Y394882D02*
D03*
X401968D02*
D03*
Y397244D02*
D03*
X404331D02*
D03*
X401968Y401968D02*
D03*
Y399606D02*
D03*
X404331D02*
D03*
X380709Y284646D02*
D03*
M02*
